<?xml version="1.0" encoding="UTF-8" standalone="no"?>
<!DOCTYPE svg PUBLIC "-//W3C//DTD SVG 1.1//EN" "http://www.w3.org/Graphics/SVG/1.1/DTD/svg11.dtd">
<svg width="100%" height="100%" viewBox="0 0 1667 1667" version="1.1" xmlns="http://www.w3.org/2000/svg" xmlns:xlink="http://www.w3.org/1999/xlink" xml:space="preserve" xmlns:serif="http://www.serif.com/" style="fill-rule:evenodd;clip-rule:evenodd;stroke-linejoin:round;stroke-miterlimit:1.41421;">
    <g id="Artboard1" transform="matrix(1.24603,0,0,1.78402,78.2098,29.4947)">
        <rect x="-62.767" y="-16.533" width="1337.58" height="934.22" style="fill:none;"/>
        <g transform="matrix(4.13017,0,0,4.11063,-0.318983,0.238641)">
            <g transform="matrix(1,0,0,1,-1.11721,53.4077)">
                <path d="M112.142,59.997L111.802,61.969L110.996,63.37L109.722,66.541C109.077,68.114 108.43,69.127 107.774,69.573L105.445,71.258L103.88,72.848L102.524,73.521L101.128,74.103C100.675,74.358 100.206,74.484 99.723,74.484L94.263,74.384L90.191,74.632L85.827,73.521L82.57,73.227L79.433,72.559L78.284,72.32C77.89,71.834 78.456,65.147 78.456,65.147L78.205,61.778L78.029,60.815L78.108,56.778C77.719,56.07 77.524,55.25 77.524,54.326C77.916,53.62 78.108,52.72 78.108,51.629L77.947,50.469L77.858,47.393L78.029,44.744C77.663,44.073 78.108,37.435 78.108,37.435L77.606,33.388C78.594,32.811 82.652,32.811 82.652,32.811L84.558,33.29L86.461,33.29L88.54,33.82L94.94,35.699L98.072,36.855L104.346,39.212C104.659,39.345 105.408,40.06 106.588,41.382L107.433,41.47L109.98,44.172C109.98,44.3 110.344,44.858 111.078,45.852C111.562,46.398 111.866,46.969 111.993,47.556C112.124,48.154 112.335,49.507 112.654,51.629L113.283,55.861L113.368,56.393L112.142,59.997ZM77.269,19.338L76.974,15.771L77.05,14.858C78.5,14.257 80.119,13.901 81.93,13.8L83.836,13.521L88.114,13.996L89.135,13.8L90.11,14.472L91.292,14.282C92.592,14.282 94.591,15.132 97.309,16.838C97.309,18.824 97.126,20.237 96.76,21.071C96.503,21.783 96.018,22.523 95.297,23.308C94.58,24.093 93.902,24.639 93.284,24.916L89.135,26.316C89.135,26.316 83.193,28.354 83.077,28.381L79.763,28.482L79.255,28.767C79.026,28.961 78.423,29.205 77.44,29.493C77.782,28.752 77.947,28.066 77.947,27.423C77.947,27.104 77.89,26.202 77.782,24.728L77.606,23.669L77.269,19.338ZM120.195,47.007C120.195,46.08 119.608,44.763 118.461,43.059C118.461,43.059 116.63,41.055 116.63,40.61C116.63,39.896 113.79,37.046 113.79,37.046L109.01,34.108L97.479,29.873L96.249,28.767L95.017,28.091L95.017,27.612L96.341,26.316L100.402,23.863L101.883,22.276L103.704,21.405L105.445,18.804L105.872,17.655C106.468,16.626 106.759,15.631 106.759,14.674C106.759,14.089 106.012,13.279 104.513,12.219L103.369,11.925L102.054,11.925L101.043,11.641L99.469,11.256C99.469,11.256 96.235,10.632 94.687,10.534L91.126,10.243L87.647,9.857L84.253,9.662L77.44,9.952L76.378,9.574L74.558,9.765L72.988,9.574C72.2,9.574 71.509,9.857 70.916,10.433L70.066,11.356L67.692,12.314L66.843,13.224L66.843,13.901L67.183,13.901L67.347,14.386L68.835,14.186C69.601,14.828 71.031,16.77 70.567,17.027L70.663,18.424C70.74,19.872 70.816,20.778 70.897,21.142C70.959,21.517 71.105,21.922 71.343,22.37L71.509,23.042L71.343,23.669L71.085,24.538L71.419,25.933L71.251,28.381L71.419,31.126L71.343,31.855L71.718,32.325L71.509,33.628L72.308,40.321L72.653,44.363L72.395,47.588C72.167,48.934 72.057,50.054 72.057,50.953L72.139,53.119L71.971,55.959L72.479,57.348L72.308,58.36L72.057,67.509L71.343,68.706L70.066,70.781L66.671,72.415L65.535,73.333L65.615,73.997L65.865,75.683C66.21,75.877 66.502,75.974 66.761,75.974C66.96,75.974 67.449,75.683 68.249,75.107C68.249,75.107 71.163,75.01 71.419,75.107C71.419,75.107 77.064,75.916 77.858,76.557L80.746,76.79C80.746,76.79 85.054,77.472 86.482,77.779C87.906,78.085 90.039,78.236 92.857,78.236C95.259,78.236 97.17,78.141 98.581,77.953C99.994,77.759 101.314,77.38 102.544,76.821C103.775,76.253 108.708,73.257 110.063,72.128L112.564,70.16L115.619,67.311L117.942,63.849L119.519,60.242L120.823,57.931L120.823,56.481L121.253,53.5C121.302,53.442 121.333,53.313 121.333,53.119C121.333,52.226 120.195,47.234 120.195,47.007Z" style="fill:rgb(21,188,239);fill-rule:nonzero;"/>
            </g>
            <g transform="matrix(1,0,0,1,-1.11721,53.4077)">
                <path d="M185.596,70.575L185.039,72.654L182.521,74.93L181.37,75.85L181.027,76.334L175.437,76.431L175.182,76.334L170.366,76.523L168.997,76.334C168.997,76.334 165.811,76.135 165.588,76.135L164.007,76.04L162.94,76.238L160.167,76.238L151.761,76.334L145.739,76.723L143.269,76.135L135.757,76.431C135.499,76.431 134.437,76.04 132.557,75.269L132.984,74.155L134.011,71.393L134.18,68.778L134.655,66.402L134.655,62.761L134.909,61.364L134.736,50.12L134.909,47.261L134.816,46.199L134.56,45.079C134.56,45.079 134.873,42.608 134.304,42.123L134.094,41.305L134.304,37.715L133.926,31.563L133.581,27.929L133.24,26.913L133.075,23.761L132.557,22.742L132.475,22.257L132.557,21.048L132.899,20.469L132.557,18.676C132.475,17.093 132.385,16.048 132.28,15.523C132.184,15.009 132.003,14.702 131.753,14.603L130.085,13.824L130.513,12.811C130.709,12.556 131.183,12.258 131.922,11.935L132.73,11.648C134.126,10.904 135.192,10.534 135.929,10.534C135.959,10.534 135.988,10.534 136.019,10.534C136.044,10.534 136.09,10.567 136.146,10.633L142.412,11.841L145.316,12.133C145.316,12.133 148.707,12.031 149.069,12.031C149.243,12.031 149.354,12.069 149.408,12.133L155.854,12.902L161.524,12.516L165.031,12.326C166.982,12.096 168.428,11.815 169.341,11.457C170.589,10.904 171.349,10.633 171.603,10.633L172.455,10.824C172.308,11.566 172.141,12.089 171.92,12.397C171.702,12.705 171.248,13.052 170.534,13.44C170.477,14.02 170.377,14.425 170.236,14.647C170.088,14.877 169.682,15.201 168.997,15.62C167.52,16.393 166.292,16.786 165.322,16.786L164.858,16.786L160.678,16.882C160.678,16.882 151.796,16.584 150.178,16.584L148.9,16.493L146.603,16.493L140.751,15.907L139.811,17.515L140.151,17.903L140.151,18.285L140.324,20.854L139.982,24.636L140.151,26.04L140.24,27.105L141.095,27.393L146.937,28.018C147.337,28.018 151.383,28.213 151.761,28.213L151.845,28.213L156.41,28.506L159.091,28.607L161.524,28.607C162.042,28.607 162.479,28.555 162.832,28.459C163.185,28.364 167.25,28.607 167.25,28.607L168.014,28.415L169.85,27.929L173.18,27.829L176.668,27.293C177.072,27.425 179.867,26.618 180.345,26.618L181.287,26.713L182.264,26.618L182.264,28.126L181.121,28.99L178.517,31.563C178.207,31.85 177.902,32.004 177.616,32.004L177.449,32.004L174.585,31.563L170.919,31.703L161.745,31.703L160.419,31.563C160.107,30.917 156.923,31.563 156.923,31.563L148.599,32.004L140.409,32.099L140.074,32.773L140.24,35.343L140.839,49.731L140.839,49.833C140.839,50.246 140.923,60.343 140.923,60.343L141.426,69.597L142.757,69.892L150.438,71.876C150.582,71.259 153.337,71.781 153.598,71.781L153.765,71.781L157.694,72.654L160.08,72.364L162.172,72.845L167.25,72.462L168.698,72.75L171.768,72.462L172.747,72.26L176.766,72.164L177.616,71.781L182.614,70.766C182.751,70.727 183.077,70.64 183.588,70.495C184.101,70.347 184.416,70.278 184.534,70.278C184.7,70.278 185.053,70.38 185.596,70.575Z" style="fill:rgb(21,188,239);fill-rule:nonzero;"/>
            </g>
            <g transform="matrix(1,0,0,1,-1.11721,53.4077)">
                <path d="M235.633,27.196L232.714,30.33L232.29,31.055L230.981,32.589L229.323,33.89C229.323,33.89 227.484,36.121 226.272,36.537L223.349,37.642L219.959,38.798L214.112,39.523L209.111,39.711L208.054,39.908L204.239,39.908L203.813,38.127L203.985,37.351L203.561,31.622L203.561,29.171L203.183,21.474L203.265,20.51L203.393,16.858C203.393,16.021 203.592,15.341 204.004,14.817C204.416,14.278 211.276,13.971 211.276,13.971L217.245,13.683L221.315,13.683C223.654,13.683 226.767,14.558 230.636,16.325C230.636,16.325 232.313,16.827 232.714,17.429L235.714,20.896L236.02,22.058L236.691,23.546L235.633,27.196ZM242.421,20.611L242.332,19.309C241.709,18.793 241.402,18.332 241.402,17.917C241.402,17.855 241.479,17.626 241.656,17.233L240.08,16.235L237.211,14.401L231.909,12.183L229.242,11.611L226.016,11.224L221.527,10.362L221.236,10.262L219.706,10.362L218.984,10.457L217.079,10.362L214.322,10.024L212.752,10.024C211.714,10.024 210.945,10.106 210.46,10.262L208.646,10.653L200.169,10.12L197.925,11.129L194.536,12.626L193.813,12.908L193.728,14.692L194.536,14.787L195.216,15.454L196.531,15.939C196.641,15.939 196.741,15.996 196.824,16.117C196.904,16.224 196.947,16.371 196.947,16.56C196.928,16.63 196.889,16.667 196.87,16.667C196.702,18.102 196.612,19.119 196.612,19.697C196.612,20.24 196.702,20.999 196.87,21.956L197.375,25.131L197.457,25.899L197.291,29.171L197.291,29.269L197.549,32.493L197.457,34.665L197.291,35.957L197.549,41.391L197.628,45.729L197.457,46.599L197.549,47.604L197.457,52.023L197.628,53.813L197.457,62.279L196.612,70.078L196.87,72.914L195.979,74.696C195.921,74.826 195.894,75.048 195.894,75.366C195.894,76.234 196.218,76.668 196.87,76.668C196.928,76.668 197.062,76.601 197.291,76.477L199.28,75.272L201.649,73.783L203.006,73.296C203.609,73.074 203.901,72.554 203.901,71.713L203.731,69.353L203.393,63.147C203.393,63.147 202.77,59.295 203.644,59.202L203.644,58.624L203.644,58.236L203.006,53.428L203.393,52.416L203.006,46.886L203.183,46.013L203.956,44.347L207.624,43.942C208.475,43.559 209.305,43.37 210.127,43.37L211.276,43.559L213.345,43.27L216.654,42.741L222.454,40.868L224.367,40.097L226.447,39.328C227.74,38.427 228.505,37.966 228.729,37.928L231.231,37.261L232.163,36.439L234.369,35.381L236.02,33.89C236.02,33.89 237.194,32.172 237.926,32.109C238.631,31.31 241.104,27.756 241.444,27.418C241.78,27.079 242.083,26.351 242.332,25.23L243.009,22.583L242.421,20.611Z" style="fill:rgb(21,188,239);fill-rule:nonzero;"/>
            </g>
            <g transform="matrix(1,0,0,1,-1.11721,53.4077)">
                <path d="M277.4,49.058C277.043,49.26 276.782,49.384 276.619,49.436C276.444,49.486 275.979,49.554 275.216,49.63C274.455,49.708 273.323,49.833 271.823,49.987L269.574,50.179L268.437,50.377C267.366,50.535 266.572,50.641 266.063,50.689C265.553,50.738 263.314,50.569 263.314,50.569L259.837,50.862L254.368,50.469L253.609,50.569L252.461,50.569L249.961,50.282L249.245,50.179C249.245,50.179 251.413,44.984 251.755,44.215C252.111,43.443 253.331,39.381 253.479,39.231C253.625,39.092 253.806,38.704 254.031,38.054L254.368,37.046C254.54,36.888 254.696,36.692 254.835,36.473C254.976,36.247 255.3,35.538 255.475,35.119C255.638,34.709 255.819,34.215 256.023,33.628L257.933,28.862C257.933,28.862 260.216,24.422 260.384,24.106C260.558,23.781 262.546,19.096 262.546,19.096C263.76,20.22 264.424,20.957 264.534,21.314L267.595,28.191L269.5,31.654L272.082,37.435L274.705,42.003C274.705,42.003 276.872,46.653 277.214,47.111C277.214,47.111 277.75,48.839 277.4,49.058ZM295.559,71.884C295.356,71.34 295.081,70.827 294.75,70.351L294.032,69.382L292.627,66.736L291.192,65.053C291.192,65.053 289.904,62.981 289.789,62.503L289.535,61.588L288.984,60.721C288.984,60.721 285.813,53.809 285.744,53.555C285.679,53.295 285.396,52.755 284.919,51.915C284.837,51.72 284.677,51.397 284.431,50.929C284.191,50.463 284.023,50.127 283.923,49.916C283.828,49.708 283.687,49.461 283.524,49.173L281.61,45.52C281.61,45.52 280.939,43.946 280.939,43.877C280.939,43.302 279.284,40.225 279.284,40.225L278.517,38.728L277.038,35.367L275.39,31.417L275.304,31.032L274.705,29.873L273.568,27.71L272.668,25.645C272.668,25.069 271.823,22.462 271.823,22.462L270.763,20.296L269.928,17.655L268.351,14.386L267.124,12.605L266.529,11.16L266.187,10.632L265.683,8.656C264.701,8.749 263.898,9.216 263.314,10.051C263.314,10.051 260.775,12.605 260.083,13.92C259.387,15.242 257.549,18.503 257.403,18.856C257.242,19.212 257.086,19.853 256.914,20.783L256.655,22.074C256.655,22.074 255.373,25.384 255.09,26.221L253.609,30.744L251.692,36.274L249.54,41.191C249.54,41.191 248.822,43.848 248.309,44.263C248.595,44.591 246.827,47.491 246.827,47.491L245.172,50.662L243.772,53.698L242.594,56.682L241.531,58.36L239.703,62.88L238.391,64.672L236.656,67.99L236.065,68.897L235.472,69.965L234.499,71.737L233.308,73.428L231.659,76.69C232.564,77.402 233.425,77.759 234.242,77.759C234.84,77.759 235.302,77.722 235.64,77.658C235.64,77.658 237.297,76.169 237.462,75.587L239.8,69.673L240.507,67.602C241.819,65.42 244.155,60.432 244.155,60.432L244.923,58.551C245.684,56.535 246.376,55.443 246.995,55.283L248.822,55.187L250.22,54.802C250.22,54.802 254.917,55.014 255.174,54.855C255.427,54.692 258.733,54.711 258.733,54.711L264.201,54.326L277.378,54.421L277.547,54.421C278.284,54.421 280.867,54.361 280.867,54.361C281.072,55.581 281.318,55.811 282.336,57.74C282.618,58.249 283.565,61.107 283.82,61.677L285.979,65.918L287.714,70.879L288.052,71.936L289.535,75.201L289.454,76.169L289.956,77.37L290.889,78.035L292.294,78.035L295.683,73.617C295.797,73.37 295.851,73.166 295.851,73.037C295.851,72.82 295.748,72.433 295.559,71.884Z" style="fill:rgb(21,188,239);fill-rule:nonzero;"/>
            </g>
            <g transform="matrix(1,0,0,1,-1.11721,53.4077)">
                <path d="M14.081,37.755C14.211,37.755 14.362,37.772 14.546,37.797C14.546,37.797 16.061,38.226 17.643,38.254C19.227,38.282 23.739,38.286 23.739,38.286L23.739,37.373C23.739,37.147 23.871,36.213 23.899,36.008C23.912,35.91 23.704,34.17 23.667,32.594C23.62,30.558 23.739,28.586 23.739,28.586C23.739,27.986 23.739,27.367 23.806,27.07C23.887,26.679 23.86,26.268 23.83,25.876C23.811,25.548 23.787,25.214 23.822,24.893L23.828,24.832L23.813,24.772C23.759,24.505 23.739,24.201 23.739,23.796L23.739,23.228L18.821,23.228L18.821,20.501L23.795,20.501C23.795,20.501 23.63,19.426 23.562,17.561C23.491,15.566 23.515,12.76 23.407,12.265C23.199,11.304 22.544,9.633 22.544,9.633L21.573,10.641C21.203,11.031 20.83,11.432 20.469,11.829C20.108,12.23 17.074,15.842 17.074,15.87C16.902,16.102 16.729,16.331 16.564,16.564L16.347,16.862C15.858,17.548 15.384,18.254 14.944,18.969L14.843,19.126C14.62,19.484 14.4,19.84 14.177,20.102C13.868,20.259 13.697,20.524 13.55,20.773C13.346,21.091 12.627,23.173 12.509,23.413C10.634,27.367 9.27,31.732 8.447,36.387L8.356,36.938L8.996,36.938C9.081,36.949 9.237,36.98 9.42,37.025C9.604,37.139 9.848,37.197 10.135,37.264C10.254,37.288 10.388,37.32 10.54,37.361C10.741,37.403 10.933,37.454 11.151,37.516C11.358,37.578 11.592,37.673 12.192,37.726C12.797,37.78 13.767,37.79 13.767,37.79C13.868,37.764 13.963,37.755 14.081,37.755ZM27.514,38.286L33.575,38.286L36.974,37.786C37.404,37.694 41.306,37.25 41.388,37.063L41.418,37.063C41.591,37.063 41.861,37.063 42.144,37.019L43.71,36.791L43.629,36.335C42.843,32.213 41.626,28.292 39.991,24.684C39.796,24.253 39.594,23.826 39.39,23.402C39.351,23.286 39.312,23.155 39.259,23.024C39.154,22.742 38.107,20.97 38.026,20.823C37.769,20.389 36.608,19.402 36.544,19.199C36.448,18.894 35.736,17.24 35.52,16.933C35.216,16.512 34.912,16.11 34.6,15.713C34.315,15.346 33.784,14.197 33.595,14.075C33.386,13.928 33.274,13.851 33.244,13.712L32.954,13.37C32.668,13.237 32.395,12.996 32.069,12.597C31.184,11.548 30.427,10.7 29.738,10.015L28.767,9.033C28.767,9.033 28.119,11.609 27.848,14.009C27.733,15.021 27.838,16.792 27.769,18.158C27.701,19.534 27.46,20.501 27.46,20.501L32.369,20.501L32.369,23.228L27.514,23.228C27.514,23.228 27.251,24.675 27.276,25.349C27.303,26.025 27.514,27.88 27.514,27.88C27.514,27.9 27.514,38.286 27.514,38.286ZM14.551,77.485C14.507,77.802 14.633,78.064 14.743,78.295C14.903,78.624 16.358,80.578 16.397,80.646C16.636,80.996 16.836,81.332 17.041,81.673L17.25,81.996C18.399,83.833 19.64,85.565 20.95,87.148L21.899,88.305L22.606,83.235C22.717,82.46 23.652,79.386 23.412,78.98L23.309,78.794C23.224,78.632 23.203,78.533 23.209,78.436C23.275,78.202 23.319,77.95 23.373,77.678C23.432,77.287 23.505,76.875 23.652,76.533L23.695,76.45L23.677,76.714C23.652,76.263 23.624,75.973 23.66,75.719L23.739,75.221L23.739,72.935C23.739,72.492 23.926,69.55 23.989,69.403L24.097,69.155L23.887,68.953C23.757,68.823 23.713,68.72 23.713,68.715L23.667,68.568L23.511,68.454L18.182,64.816L18.182,61.037L23.739,64.816L23.739,60.678C23.739,60.311 23.742,59.702 23.802,59.505C23.802,59.505 23.811,57.816 23.776,57.444C23.757,57.076 23.739,56.85 23.739,56.465L23.739,40.532L17.642,40.532L16.607,40.692C16.23,40.753 15.702,40.834 15.308,40.834C15.265,40.834 14.052,40.787 12.901,40.963C11.671,41.151 9.493,41.807 9.181,41.849L7.735,42.078L7.715,42.456C7.676,43.076 7.597,45.494 7.595,45.879C7.589,45.938 7.579,46.016 7.57,46.102L7.556,46.189C7.556,46.189 7.596,49.552 7.607,49.8C7.646,50.684 7.703,51.576 7.773,52.471C7.812,52.924 7.853,53.375 7.899,53.721L7.904,53.745L7.918,53.779C7.932,53.815 7.937,53.886 7.95,53.971C8.001,54.293 8.073,54.768 8.332,55.12C8.325,55.448 8.293,55.646 8.259,55.809C8.23,56.043 8.193,56.241 8.254,56.6C8.259,56.758 8.303,57.032 8.342,57.336C8.385,57.626 8.439,57.918 8.49,58.209L8.495,58.315C8.532,58.783 8.311,60.961 8.672,61.233L8.723,61.276C8.982,61.478 9.084,61.574 9.104,61.683C9.104,61.683 9.146,61.885 9.155,61.922L9.099,62.013C8.958,62.23 9.009,62.444 9.047,62.6C9.099,62.826 9.835,65.147 9.945,65.167C9.951,65.221 10.007,65.605 10.007,65.759C10.007,66.037 10.909,68.195 10.951,68.346L10.972,68.405C11.062,68.677 11.17,68.997 11.179,69.15C11.179,69.264 11.207,69.381 11.246,69.511C11.349,69.902 11.314,69.986 11.289,70.013C11.289,70.013 11.646,71.247 11.831,71.415C11.985,71.561 12.045,71.61 12.093,71.81L12.12,71.918L12.197,71.998C12.241,72.055 12.279,72.094 12.286,72.246C12.303,72.444 13.856,75.733 14.096,76.231L14.118,76.295C14.326,76.726 14.528,77.144 14.551,77.485ZM27.511,56.195C27.322,56.524 27.313,56.917 27.3,57.352C27.295,57.806 27.511,60.239 27.509,60.821L27.509,66.452L33.338,70.135L33.338,74.003L27.509,70.319L27.509,75.175L27.581,75.735C27.633,76.104 27.707,76.599 27.945,76.982L27.999,77.056L28.069,77.114C28.119,77.18 28.127,77.516 28.135,77.765C28.145,78.181 28.225,79.656 28.219,79.927C28.198,80.005 28.191,80.071 28.183,80.144C28.164,80.191 28.157,80.276 28.145,80.308L27.689,80.354L27.594,80.694C27.46,81.491 27.878,82.01 28.183,82.384C28.374,82.628 28.493,82.783 28.493,82.94L28.493,83.023L28.52,83.087C28.667,83.457 28.744,83.976 28.805,84.445L29.362,88.422L30.309,87.166C31.563,85.503 32.75,83.811 33.835,82.157C33.999,81.899 34.244,81.52 34.391,81.407C34.784,81.301 36.296,78.141 36.332,78.084C36.595,77.617 36.856,77.144 37.116,76.67C37.611,75.758 38.084,74.841 38.524,73.935C38.605,73.757 40.441,69.695 40.428,69.661L40.728,68.909C40.728,68.909 40.781,68.778 40.8,68.744C40.8,68.744 41.854,65.743 41.959,65.416C42.265,64.474 42.544,63.525 42.787,62.576C42.911,62.12 43.025,61.662 43.138,61.202C43.186,61.12 43.226,61.03 43.264,60.935C43.396,60.637 43.995,56.87 44.023,56.669C44.062,56.41 44.118,56.062 44.217,55.968C44.501,55.707 44.52,55.421 44.545,55.193C44.56,54.91 44.757,53.598 44.62,53.446C44.481,53.279 44.454,53.245 44.46,53.196L44.473,53.136C44.473,52.846 44.493,52.519 44.512,52.199L44.523,52.032C44.571,51.299 44.696,48.091 44.873,47.319C45.164,46.07 45.461,44.763 44.517,43.48C44.499,43.153 44.481,42.826 44.446,42.496L44.422,42.126L33.575,40.532L27.514,40.532L27.511,56.195ZM48.136,112.068C47.679,111.975 47.229,111.878 46.796,111.771C46.334,111.671 45.876,111.552 45.423,111.43C44.985,111.315 44.246,111.02 44.246,111.02C44.246,111.02 42.229,110.463 41.956,110.373L41.734,110.295C40.968,109.214 37.044,108.511 36.537,108.141L36.488,108.107L36.164,107.941C35.306,107.524 34.423,107.055 33.538,106.555C33.108,106.317 32.62,106.034 32.201,105.755C32.082,105.539 29.134,103.864 28.943,103.733C28.055,103.137 27.093,102.486 26.031,101.715L25.589,101.406L25.167,101.737C24.39,102.354 23.66,102.901 22.951,103.431C22.71,103.61 19.492,105.779 19.437,105.811C19.188,105.962 18.931,106.122 18.678,106.275C18.419,106.428 18.155,106.58 17.888,106.724C17.688,106.83 17.475,106.948 17.263,107.063C16.946,107.241 16.608,107.424 16.286,107.583C16.012,107.734 15.734,107.868 15.454,107.999C15.19,108.129 14.927,108.253 14.653,108.372C14.574,108.406 14.494,108.426 14.4,108.46C14.19,108.528 11.138,109.766 10.995,109.81C10.419,110.017 9.784,110.222 9.081,110.417C8.403,110.609 7.722,110.784 7.049,110.941C6.709,111.012 6.395,111.078 6.084,111.078C5.801,111.078 3.309,111.498 3.186,111.552C3.149,111.461 3.024,111.084 3.024,111.084L2.892,110.942C2.503,110.642 2.503,110.317 2.544,109.722C2.593,109.007 2.654,108.126 1.628,107.197C1.558,106.905 1.297,106.661 1.05,106.431C0.975,106.369 3.163,105.894 3.163,105.894L3.724,105.794C4.138,105.727 4.288,105.683 4.432,105.622C4.546,105.575 4.667,105.519 4.786,105.457C5.034,105.335 5.195,105.262 5.353,105.262C5.353,105.262 6.395,104.84 6.896,104.711L7.029,104.677C8.07,104.335 8.958,104.172 9.79,104.172C10.59,104.172 16.772,100.317 16.854,100.244C16.913,100.223 16.963,100.203 17.019,100.178C17.036,100.167 17.065,100.149 17.095,100.14C17.117,100.186 19.625,99.268 19.74,98.646C19.809,98.259 19.857,98.014 20.052,97.912L20.297,97.415C20.29,97.392 20.304,97.262 20.711,96.809L20.963,96.529L20.691,96.253C19.929,95.44 19.166,94.601 18.432,93.774C18.146,93.437 17.815,93.067 17.834,92.799C17.815,92.285 16.177,90.591 16.177,90.591C16.12,90.574 16.058,90.555 16,90.533C16.063,90.288 15.93,90.046 15.841,89.9C15.653,89.566 13.252,87.192 13.252,87.192C12.962,86.795 12.669,86.37 12.604,85.945C12.514,85.619 12.348,85.401 12.212,85.212C11.99,84.921 11.305,83.609 11.104,83.485C10.818,83.31 10.611,83.182 10.491,82.984C10.252,82.598 10.02,82.213 9.79,81.821C9.566,81.434 9.372,81.087 9.265,80.777C9.232,80.524 9.108,80.315 8.99,80.122C8.871,79.895 8.007,78.578 7.837,78.245C7.633,77.844 7.423,77.436 7.223,77.021C7.029,76.631 6.796,76.145 6.896,75.885L6.91,75.85L6.913,75.82C6.996,75.37 6.719,74.979 6.483,74.645C6.29,74.37 6.108,74.106 6.136,73.852L5.899,73.429C5.505,73.192 5.307,72.771 5.115,72.288C4.458,70.656 3.856,68.984 3.315,67.299C3.137,66.755 2.967,66.213 2.808,65.662C2.652,65.123 1.579,60.988 1.493,60.602C1.388,60.12 1.283,59.637 1.183,59.146C1.087,58.678 0.996,58.209 0.91,57.733C0.916,57.592 0.914,57.448 0.901,57.312C0.889,56.983 0.416,54.834 0.397,54.674C0.345,54.337 0.296,53.998 0.249,53.663C0.226,53.484 0.185,53.183 0.218,53.088L0.274,53.027L0.274,52.993C0.345,52.783 0.3,52.576 0.274,52.384C0.235,52.141 0.223,50.99 0.149,50.86C0.052,50.696 0.009,50.64 0.027,50.503L0.034,50.471L0.027,50.443C-0.001,50.156 -0.001,49.794 0,49.446C0,49.446 0.423,44.221 0.3,43.198C0.236,42.603 0.167,41.987 0.242,41.496L0.242,41.506C0.247,41.506 0.281,41.358 0.286,41.32C0.286,41.32 1.006,39.337 0.85,39.024C0.731,38.777 0.686,38.663 0.737,38.483L0.786,38.343L0.717,38.209C0.686,38.125 0.712,37.848 0.786,37.4C0.927,36.526 1.087,35.641 1.27,34.774C1.311,34.565 1.352,34.346 1.4,34.15L1.405,34.137C2.137,33.372 2.925,28.094 4.817,23.481C5.907,20.822 8.559,17.717 8.71,17.54C9.342,16.801 9.951,13.953 10.634,13.51L10.721,13.453L10.856,13.276C11.756,12.11 12.717,10.977 13.729,9.905C13.891,9.728 14.301,9.288 14.494,9.181C14.94,9.109 15.231,8.807 15.536,8.492C15.868,8.147 17.168,6.553 17.453,6.31C18.324,5.549 19.247,4.813 20.177,4.099C20.635,3.758 25.538,0.501 26.001,0.226C26.406,0.458 26.805,0.688 27.202,0.922C27.657,1.195 28.101,1.479 28.544,1.753L28.623,1.819C28.994,2.102 31.622,4.099 31.622,4.099C31.783,4.099 31.957,4.139 32.315,4.419C33.108,5.033 33.889,5.682 34.646,6.351C35.174,6.807 37.317,9.109 37.317,9.109C37.696,9.25 38.069,9.658 38.374,9.986C39.53,11.261 40.632,12.608 41.654,13.994C41.948,14.398 42.27,14.86 42.544,15.313C42.606,15.545 44.261,17.95 44.499,18.357C44.79,18.86 45.072,19.376 45.348,19.883C45.49,20.149 45.625,20.408 45.755,20.672L45.827,20.807L45.918,20.925C46.155,21.122 47.546,24.628 47.59,24.755C47.856,25.299 48.081,25.863 48.278,26.395C48.7,27.521 49.099,28.689 49.458,29.876C49.574,30.262 49.744,30.817 49.72,31.128C49.473,31.509 49.621,31.943 49.774,32.356C49.927,32.773 50.694,34.508 50.836,35.134L50.994,35.85L51.003,35.894C51.294,36.536 50.675,40.144 51.581,41.096C51.522,41.165 51.811,44.604 51.809,44.79C51.811,45.253 51.811,45.71 51.811,46.178L51.809,46.393C51.791,47.385 51.627,48.328 51.479,49.237C51.247,50.59 51.005,51.998 51.209,53.614L51.261,54.131C51.261,54.131 51.285,54.912 51.157,55.087C50.941,55.441 50.903,55.747 50.872,56.021C50.821,56.423 50.775,58.783 50.725,58.98C50.637,59.441 50.545,59.896 50.448,60.347C50.448,60.347 50.422,60.443 50.414,60.462L50.345,60.42C50.345,60.42 49.501,64.216 49.46,64.346C49.401,64.601 49.326,64.889 49.226,65.147C49.122,65.377 48.457,66.309 48.365,66.637C48.258,67.047 47.543,68.644 47.495,68.829C47.365,69.333 47.571,70.198 47.26,71.078C46.939,71.987 46.554,72.878 46.175,73.746C45.978,74.201 44.531,77.263 44.363,77.604C44.143,78.029 43.933,78.444 43.71,78.853C43.475,79.295 43.23,79.734 42.969,80.131C42.667,80.315 42.503,80.58 42.36,80.815C42.194,81.084 41.416,82.847 41.183,83.216C40.309,84.603 39.377,85.997 38.399,87.352C38.302,87.477 38.21,87.604 38.118,87.717C38.106,87.729 38.095,87.744 38.082,87.757C37.939,87.851 35.439,91.186 35.352,91.289C35.117,91.574 34.867,91.872 34.63,92.135C34.464,92.2 34.335,92.304 34.234,92.382C34.043,92.533 32.576,94.25 32.479,94.308L32.264,94.774C32.238,94.864 31.949,95.18 31.847,95.297C31.545,95.616 31.237,95.938 30.934,96.261L30.665,96.544L30.922,96.829C31.205,97.14 31.509,97.451 31.834,97.761C32.139,98.054 32.459,98.338 32.786,98.627C32.857,98.695 32.934,98.773 33.018,98.85C33.18,98.997 33.343,99.161 33.351,99.281C33.351,99.281 34.096,99.962 34.362,100.076C34.63,100.178 34.791,100.258 34.897,100.382L35.183,100.554C35.441,100.639 35.623,100.696 35.815,100.817C36.043,100.956 36.272,101.098 36.496,101.23C36.619,101.398 36.788,101.525 36.964,101.654C37.123,101.774 37.652,102.147 38.415,102.489C39.1,102.794 40.027,103.073 40.11,103.108C41.272,103.64 42.516,104.153 43.813,104.621C44.314,104.811 44.804,104.986 44.873,105.177C44.873,105.177 46.066,105.818 46.554,105.874C46.935,105.918 48.273,106.203 48.378,106.203C48.687,106.203 49.056,106.285 49.501,106.407C49.923,106.514 50.343,106.622 50.756,106.716C50.644,106.956 50.545,107.197 50.435,107.431C50.399,107.485 50.362,107.532 50.326,107.583C50.14,107.88 49.113,109.732 48.999,109.841L48.892,110.31C48.961,110.462 48.822,110.829 48.695,111.12C48.564,111.445 48.445,111.761 48.339,112.068L48.136,112.068Z" style="fill:rgb(21,188,239);fill-rule:nonzero;"/>
            </g>
            <g transform="matrix(1,0,0,1,-1.11721,53.4077)">
                <path d="M82.425,92.594L80.874,94.033C79.765,92.926 78.257,92.283 76.573,92.283C73.492,92.283 71.076,94.655 71.076,97.935C71.076,101.237 73.492,103.586 76.573,103.586C78.257,103.586 79.765,102.966 80.874,101.836L82.425,103.277C80.962,104.85 78.878,105.848 76.573,105.848C72.206,105.848 68.682,102.3 68.682,97.935C68.682,93.568 72.206,90.022 76.573,90.022C78.878,90.022 80.962,91.018 82.425,92.594Z" style="fill:rgb(21,188,239);fill-rule:nonzero;"/>
            </g>
            <g transform="matrix(1,0,0,1,-1.11721,53.4077)">
                <path d="M90.669,103.433L94.902,103.433C97.009,103.433 97.718,102.391 97.718,101.082C97.718,99.753 96.897,98.711 94.902,98.711L90.669,98.711L90.669,103.433ZM90.669,96.649L94.326,96.649C96.499,96.649 97.009,95.562 97.009,94.543C97.009,93.547 96.632,92.437 94.326,92.437L90.669,92.437L90.669,96.649ZM94.083,90.176C98.516,90.176 99.292,92.57 99.292,94.233C99.292,95.895 98.494,97.07 97.075,97.58C98.915,97.957 100.001,99.398 100.001,101.326C100.001,103.787 98.605,105.693 94.415,105.693L88.274,105.693L88.274,90.176L94.083,90.176Z" style="fill:rgb(21,188,239);fill-rule:nonzero;"/>
            </g>
            <g transform="matrix(1,0,0,1,-1.11721,53.4077)">
                <path d="M115.383,96.739L115.383,98.999L108.224,98.999L108.224,103.433L115.915,103.433L115.915,105.693L105.829,105.693L105.829,90.176L115.915,90.176L115.915,92.437L108.224,92.437L108.224,96.739L115.383,96.739Z" style="fill:rgb(21,188,239);fill-rule:nonzero;"/>
            </g>
            <g transform="matrix(1,0,0,1,-1.11721,53.4077)">
                <path d="M127.396,105.693L125.001,105.693L125.001,92.437L120.479,92.437L120.479,90.176L131.94,90.176L131.94,92.437L127.396,92.437L127.396,105.693Z" style="fill:rgb(21,188,239);fill-rule:nonzero;"/>
            </g>
            <g transform="matrix(1,0,0,1,-1.11721,53.4077)">
                <path d="M137.635,105.693L134.998,105.693L141.403,90.176L142.8,90.176L149.14,105.693L146.502,105.693L142.069,94.588L137.635,105.693Z" style="fill:rgb(21,188,239);fill-rule:nonzero;"/>
            </g>
            <g transform="matrix(1,0,0,1,-1.11721,53.4077)">
                <path d="M155.345,97.935C155.345,101.237 157.761,103.586 160.843,103.586C163.924,103.586 166.361,101.237 166.361,97.935C166.361,94.655 163.924,92.283 160.843,92.283C157.761,92.283 155.345,94.655 155.345,97.935ZM168.756,97.935C168.756,102.324 165.209,105.848 160.843,105.848C156.476,105.848 152.95,102.324 152.95,97.935C152.95,93.568 156.476,90.022 160.843,90.022C165.209,90.022 168.756,93.568 168.756,97.935Z" style="fill:rgb(21,188,239);fill-rule:nonzero;"/>
            </g>
            <g transform="matrix(1,0,0,1,-1.11721,53.4077)">
                <path d="M184.359,96.739L184.359,98.999L177.199,98.999L177.199,103.433L184.892,103.433L184.892,105.693L174.806,105.693L174.806,90.176L184.892,90.176L184.892,92.437L177.199,92.437L177.199,96.739L184.359,96.739Z" style="fill:rgb(21,188,239);fill-rule:nonzero;"/>
            </g>
            <g transform="matrix(1,0,0,1,-1.11721,53.4077)">
                <path d="M211.943,99.598C214.271,99.598 216.354,98.557 216.354,96.007C216.354,93.547 214.271,92.437 211.943,92.437L209.172,92.437L209.172,99.598L211.943,99.598ZM211.789,90.176C215.934,90.176 218.616,92.526 218.616,96.007C218.616,99.509 215.934,101.836 211.789,101.836L209.172,101.836L209.172,105.693L206.778,105.693L206.778,90.176L211.789,90.176Z" style="fill:rgb(21,188,239);fill-rule:nonzero;"/>
            </g>
            <g transform="matrix(1,0,0,1,-1.11721,53.4077)">
                <path d="M226.75,99.952L231.139,99.952L228.944,94.543L226.75,99.952ZM224.488,105.693L221.851,105.693L228.256,90.176L229.653,90.176L235.992,105.693L233.355,105.693L231.958,102.213L225.907,102.213L224.488,105.693Z" style="fill:rgb(21,188,239);fill-rule:nonzero;"/>
            </g>
            <g transform="matrix(1,0,0,1,-1.11721,53.4077)">
                <path d="M244.592,103.433L251.751,103.433L248.184,94.588L244.592,103.433ZM253.946,108.552L253.946,105.693L242.376,105.693L242.376,108.552L239.981,108.552L239.981,103.433L242.021,103.433L247.495,90.176L248.892,90.176L254.323,103.433L256.341,103.433L256.341,108.552L253.946,108.552Z" style="fill:rgb(21,188,239);fill-rule:nonzero;"/>
            </g>
            <g transform="matrix(1,0,0,1,-1.11721,53.4077)">
                <path d="M271.146,105.693L271.146,94.743L262.944,105.693L261.548,105.693L261.548,90.176L263.942,90.176L263.942,101.127L272.144,90.176L273.54,90.176L273.54,105.693L271.146,105.693Z" style="fill:rgb(21,188,239);fill-rule:nonzero;"/>
            </g>
            <g transform="matrix(1,0,0,1,-1.11721,53.4077)">
                <path d="M281.739,97.935C281.739,101.237 284.156,103.586 287.237,103.586C290.318,103.586 292.757,101.237 292.757,97.935C292.757,94.655 290.318,92.283 287.237,92.283C284.156,92.283 281.739,94.655 281.739,97.935ZM295.15,97.935C295.15,102.324 291.604,105.848 287.237,105.848C282.87,105.848 279.347,102.324 279.347,97.935C279.347,93.568 282.87,90.022 287.237,90.022C291.604,90.022 295.15,93.568 295.15,97.935Z" style="fill:rgb(21,188,239);fill-rule:nonzero;"/>
            </g>
        </g>
    </g>
</svg>
