<?xml version="1.0" encoding="utf-8"?>
<!-- Generator: Adobe Illustrator 21.1.0, SVG Export Plug-In . SVG Version: 6.00 Build 0)  -->
<svg version="1.1" id="Слой_1" xmlns="http://www.w3.org/2000/svg" xmlns:xlink="http://www.w3.org/1999/xlink" x="0px" y="0px"
	 viewBox="0 0 500 500" style="enable-background:new 0 0 500 500;" xml:space="preserve">
<style type="text/css">
	.st0{fill:#FFFFFF;}
	.st1{fill:#00A19A;}
	.st2{fill:#59BEC1;}
	.st3{fill:#1D1D1B;}
	.st4{fill:none;stroke:#000000;stroke-width:2.814;stroke-linejoin:round;stroke-miterlimit:10;}
	.st5{fill:none;stroke:#000000;stroke-width:2.814;stroke-linecap:round;stroke-linejoin:round;stroke-miterlimit:10;}
</style>
<g>
	<g>
		<path class="st2" d="M342.6,174.4c-0.2-0.3-0.5-0.5-0.8-0.5l-96.6,2l-22.9-15c-0.1-0.1-0.3-0.1-0.4-0.2l-24.3-3
			c-0.3,0-0.7,0.1-0.9,0.4c-0.2,0.3-0.3,0.6-0.1,1l12.8,30.5l-41.1,23.5c-0.2,0.1-0.3,0.3-0.4,0.5l-3.9,10l-15.4,4.7
			c-0.4,0.1-0.7,0.5-0.7,1c0,0.4,0.3,0.8,0.8,0.9l12.3,2.7l-4.3,18.9c0,0.2,0,0.4,0.1,0.6l15.3,32.7c0.1,0.2,0.2,0.3,0.4,0.4
			l40.9,22.9l3,26c0,0.1,0.1,0.3,0.1,0.4l22.6,35.8c0.2,0.3,0.5,0.5,0.8,0.5c0.1,0,0.2,0,0.3,0c0.4-0.1,0.7-0.6,0.7-1l-4.9-60.9
			l24.1-50.3c0.2-0.4,0.1-0.8-0.2-1.1c-0.3-0.3-0.7-0.4-1.1-0.2l-25.6,12.2c-0.2,0.1-0.3,0.2-0.4,0.3l-15.5,23.5l-17.6-12.5
			l10.3-22.8l58.8-19.8l0.1,0c0.1,0.2,0.2,0.4,0.3,0.5l38.2,30.5c0.2,0.1,0.4,0.2,0.6,0.2c0.1,0,0.3,0,0.4-0.1
			c0.3-0.2,0.5-0.5,0.5-0.9l-0.9-21.9c0-0.1,0-0.3-0.1-0.4l-10.2-18.6l12.7-4.7c0.2-0.1,0.4-0.2,0.5-0.5l13.2-25.5l7.4-1.4
			c0.3-0.1,0.5-0.2,0.7-0.5l10.6-19.6C342.8,175.1,342.8,174.7,342.6,174.4z"/>
		<g>
			<path d="M247.7,374.2c-0.3,0-0.7-0.2-0.8-0.5l-22.6-35.8c-0.1-0.1-0.1-0.3-0.1-0.4l-3-26l-40.9-22.9c-0.2-0.1-0.3-0.3-0.4-0.4
				l-15.3-32.7c-0.1-0.2-0.1-0.4-0.1-0.6l4.4-19.5l1.9,0.4l-4.3,19.1l15,32.1l41,23c0.3,0.2,0.5,0.4,0.5,0.7l3,26.3l20.4,32.3
				l-4.6-57.3c0-0.2,0-0.3,0.1-0.5l23-48L242,274.4l-15.9,24.2c-0.1,0.2-0.4,0.4-0.6,0.4c-0.3,0.1-0.5,0-0.7-0.2l-19.1-13.6
				c-0.4-0.3-0.5-0.8-0.3-1.2l10.8-23.9c0.1-0.2,0.3-0.4,0.6-0.5l59.2-20l41.2-15.4l13.2-25.6c0.1-0.3,0.4-0.4,0.7-0.5l7.4-1.4
				l9.6-17.8l-106.9,2.2l-63.8,36.5l-4.2,10.6l-1.8-0.7l4.3-10.9c0.1-0.2,0.2-0.4,0.4-0.5l64.3-36.8c0.1-0.1,0.3-0.1,0.5-0.1
				l108.8-2.3c0.3,0,0.7,0.2,0.8,0.5c0.2,0.3,0.2,0.7,0,1L339.9,198c-0.1,0.3-0.4,0.4-0.7,0.5l-7.4,1.4l-13.2,25.5
				c-0.1,0.2-0.3,0.4-0.5,0.5l-41.6,15.6l-58.8,19.8l-10.3,22.8l17.6,12.5l15.5-23.5c0.1-0.1,0.2-0.3,0.4-0.3l25.6-12.2
				c0.4-0.2,0.8-0.1,1.1,0.2c0.3,0.3,0.4,0.7,0.2,1.1l-24.1,50.3l4.9,60.9c0,0.4-0.2,0.9-0.7,1C247.9,374.2,247.8,374.2,247.7,374.2
				z"/>
			<path d="M217.3,193l-13-30.8c-0.1-0.3-0.1-0.7,0.1-1c0.2-0.3,0.5-0.4,0.9-0.4l24.4,3c0.1,0,0.3,0.1,0.4,0.2l23,15.1l-1.1,1.6
				l-22.8-15l-22.5-2.7l12.3,29.3L217.3,193z"/>
			<path d="M211.1,245.3c-0.1,0-0.2,0-0.2,0l-54.4-12c-0.4-0.1-0.7-0.5-0.8-0.9c0-0.4,0.3-0.8,0.7-1l36.4-11.1c0.1,0,0.2,0,0.3,0
				l42.3,0.2c0.5,0,1,0.4,1,1c0,0.5-0.4,1-1,1l-42.2-0.2l-32.8,10l50.4,11.1l15.1-11.9c0.4-0.3,1-0.3,1.4,0.2c0.3,0.4,0.3,1-0.2,1.4
				l-15.4,12.2C211.5,245.2,211.3,245.3,211.1,245.3z"/>
			<path d="M315.8,272.6c-0.2,0-0.4-0.1-0.6-0.2L276.9,242c-0.4-0.3-0.5-0.9-0.2-1.4c0.3-0.4,0.9-0.5,1.4-0.2l36.6,29.1l-0.8-19.6
				l-10.6-19.2c-0.3-0.5-0.1-1.1,0.4-1.3s1.1-0.1,1.3,0.4l10.7,19.4c0.1,0.1,0.1,0.3,0.1,0.4l0.9,22c0,0.4-0.2,0.7-0.5,0.9
				C316.1,272.6,315.9,272.6,315.8,272.6z"/>
			<path d="M293.9,214.2c-0.2,0-0.4,0-0.5-0.1c-0.5-0.3-0.6-0.9-0.3-1.3l5-8c0.1-0.2,0.4-0.4,0.6-0.4l32.2-6.1
				c0.5-0.1,1,0.2,1.1,0.8c0.1,0.5-0.2,1-0.8,1.1l-31.8,6l-4.8,7.6C294.5,214,294.2,214.2,293.9,214.2z"/>
		</g>
	</g>
	<g>
		<g>
			<path class="st2" d="M96.3,152.4c1.9-1,3.7-1.6,5.4-1.7c1.7-0.1,3.3,0.2,4.8,1.1c0.5,0.3,1,0.6,1.5,1c1.7,1.3,2.8,3,3.3,5
				c0.6,2,0.5,4.1,0,6.3c-0.5,1.6-1.1,3.2-2,4.8c-0.8,1.5-1.7,2.8-2.8,3.9c-1,1.2-2.2,2-3.3,2.6c-1.8,1-3.9,1.5-6.1,1.5
				c-2.3,0-4.6-0.4-7-1.3l1.6-6.2c1.7,0.8,3.3,1.3,4.8,1.4c1.5,0.2,2.9-0.1,4-0.7c0.7-0.3,1.4-0.9,2.1-1.6c0.7-0.7,1.3-1.6,1.8-2.5
				c0.7-1.3,1.2-2.6,1.4-3.9c0.2-1.3,0-2.4-0.5-3.2c-0.4-0.7-0.9-1.3-1.5-1.7c-0.9-0.5-1.9-0.6-3.1-0.3c-1.1,0.3-2.2,0.9-3.3,1.8
				c-0.8,0.7-1.7,1.7-3,2.9c-0.5,0.5-1.1,1.1-1.8,1.7c-0.7,0.7-1.3,1.2-1.8,1.7c-1.2,1.1-2.4,1.9-3.5,2.4c-1.1,0.6-2.2,0.9-3.4,1
				c-0.8,0.1-1.7,0-2.6-0.3c-0.9-0.2-1.8-0.6-2.6-1c-1.2-0.7-2-1.4-2.6-2.3c-0.9-1.1-1.5-2.3-1.8-3.7c-0.3-1.4-0.4-2.7-0.2-4.1
				c0.3-1.9,1-3.8,2-5.6c0.8-1.4,1.7-2.6,2.7-3.7c1-1.1,2.1-1.9,3.3-2.5c1.5-0.8,3.1-1.3,5-1.6c1.9-0.2,3.7-0.1,5.5,0.3l-1.4,5.7
				c-1.1-0.2-2.3-0.3-3.4-0.2c-1.1,0.1-2.1,0.4-3,0.9c-0.7,0.3-1.4,0.8-2,1.5c-0.6,0.7-1.2,1.4-1.7,2.2c-0.7,1.2-1.1,2.4-1.2,3.6
				c-0.1,0.9,0,1.8,0.3,2.5c0.3,0.7,0.8,1.3,1.5,1.7c0.5,0.3,1,0.4,1.7,0.5c0.5,0,1-0.2,1.6-0.5c0.6-0.3,1.3-0.8,1.9-1.4
				c0.6-0.5,1.4-1.3,2.6-2.4l1.6-1.5c0.6-0.6,0.9-0.9,1-1c0.8-0.8,1.5-1.5,2.1-1.9C94.9,153.3,95.5,152.9,96.3,152.4z"/>
			<path class="st2" d="M136,84.7l4.9-3.5l21.2,29.1l-4.9,3.5l-8.8-12.1l-12.1,8.8l8.8,12.1l-4.9,3.5L119.1,97l4.9-3.5l8.8,12.1
				l12.1-8.8L136,84.7z"/>
			<path class="st2" d="M208,53.9l18.1,33l-5.8,1.2l-4.9-8.9l-12.1,2.5l-1,10.2l-5.8,1.2l3.5-37.5L208,53.9z M212.3,73.7l-7.2-13.1
				l-1.4,14.8L212.3,73.7z"/>
			<path class="st2" d="M272.6,85.2l7.7-35.2l12.9,2.8c3.3,0.7,5.6,2.3,6.9,4.9c1.3,2.5,1.6,5.5,0.9,8.9c-0.6,2.6-1.6,4.8-3.1,6.5
				c-1.5,1.7-3.3,2.8-5.4,3.2l3.3,13.9l-6.2-1.4l-3.1-13l-5.7-1.2l-2.6,11.7L272.6,85.2z M281.9,69.6l5.9,1.3
				c1.9,0.4,3.5,0.1,4.7-0.8c1.3-1,2.1-2.5,2.6-4.6c0.5-2.1,0.3-3.8-0.5-5.2c-0.8-1.4-2.1-2.2-3.9-2.7l-5.9-1.3L281.9,69.6z"/>
			<path class="st2" d="M352.3,120.4l1-18.8L351,100l-9.3,12.7l-4.8-3.5l21.3-29l4.8,3.5l-8.4,11.5l2.3,1.7l15.9-6l5.5,4l-19.2,7.3
				l-1.2,22.3L352.3,120.4z"/>
			<path class="st2" d="M413.2,166.3c-0.1,2.1-0.6,4-1.3,5.5c-0.8,1.5-1.9,2.7-3.4,3.6c-0.5,0.3-1.1,0.5-1.7,0.8c-2,0.7-4,0.8-6,0.3
				c-2-0.5-3.8-1.6-5.3-3.3c-1.2-1.2-2.2-2.6-3.1-4.2c-0.8-1.4-1.5-2.9-1.9-4.4c-0.4-1.5-0.6-2.9-0.5-4.2c0.1-2.1,0.7-4.1,1.9-6.1
				c1.2-1.9,2.7-3.7,4.7-5.3l4.5,4.5c-1.5,1-2.8,2.1-3.7,3.4c-0.9,1.2-1.4,2.5-1.5,3.8c-0.1,0.8,0,1.6,0.3,2.6
				c0.3,1,0.7,1.9,1.2,2.8c0.7,1.3,1.6,2.3,2.6,3.2c1,0.8,2,1.3,3,1.3c0.8,0.1,1.5-0.1,2.2-0.5c0.9-0.5,1.5-1.3,1.9-2.5
				c0.4-1.1,0.4-2.4,0.2-3.7c-0.2-1-0.6-2.4-1-4c-0.2-0.7-0.3-1.5-0.6-2.4c-0.2-1-0.4-1.7-0.5-2.4c-0.3-1.6-0.4-3-0.3-4.2
				c0.1-1.2,0.4-2.4,0.9-3.4c0.4-0.8,0.9-1.5,1.6-2.1c0.7-0.7,1.4-1.2,2.2-1.7c1.2-0.7,2.3-1,3.3-1c1.4-0.2,2.8-0.1,4.1,0.4
				c1.4,0.4,2.6,1.1,3.6,2c1.5,1.3,2.7,2.8,3.8,4.6c0.8,1.4,1.4,2.8,1.7,4.2c0.4,1.4,0.5,2.8,0.4,4.1c0,1.7-0.5,3.4-1.3,5.1
				c-0.8,1.7-1.8,3.2-3.1,4.5l-4.2-4.2c0.8-0.9,1.4-1.8,1.9-2.8c0.5-1,0.8-2,0.8-3c0.1-0.8,0-1.6-0.2-2.5c-0.2-0.9-0.6-1.8-1.1-2.6
				c-0.7-1.2-1.5-2.2-2.4-2.9c-0.7-0.6-1.5-0.9-2.3-1c-0.8-0.1-1.5,0-2.2,0.4c-0.5,0.3-0.9,0.7-1.3,1.2c-0.2,0.4-0.4,1-0.4,1.7
				c-0.1,0.7,0,1.5,0.2,2.3c0.1,0.7,0.3,1.9,0.7,3.5l0.5,2.1c0.2,0.8,0.3,1.3,0.3,1.4c0.3,1.1,0.5,2.1,0.6,2.8
				C413.1,164.6,413.2,165.4,413.2,166.3z"/>
			<path class="st2" d="M246.5,450c-1.9,0-3.6-0.5-5-1.4c-1.4-0.9-2.6-2-3.4-3.2c-0.8-1.2-1.4-2.4-1.7-3.5l5.8-1.6
				c0.3,0.6,0.5,1.1,0.7,1.5c0.2,0.4,0.7,0.9,1.3,1.4c0.6,0.5,1.4,0.8,2.4,0.8c1.2,0,2.3-0.4,3.2-1.3c0.9-0.9,1.3-1.9,1.4-3.2
				l0.2-26.3l6,0l-0.2,26.3c0,1.9-0.5,3.7-1.4,5.3c-0.9,1.6-2.2,2.9-3.9,3.8C250.2,449.6,248.4,450,246.5,450z"/>
			<path class="st2" d="M91.4,289l4.3,12.8c1.1,3.2,0.8,6-0.7,8.4c-1.5,2.5-3.9,4.2-7.2,5.4c-2.2,0.7-4.3,1-6.4,0.8
				c-2-0.2-3.8-0.9-5.3-2.1c-1.5-1.2-2.6-2.8-3.3-4.9l-2.4-7.1l-11.4,3.8l-1.9-5.7L91.4,289z M77.3,306.5c0.6,1.8,1.7,3,3.1,3.6
				c1.5,0.6,3.2,0.5,5.3-0.2c2-0.7,3.4-1.7,4.2-3c0.8-1.4,0.9-2.9,0.3-4.7l-1.9-5.7l-12.9,4.3L77.3,306.5z"/>
			<path class="st2" d="M94.3,373.2l27.5-23.4l8.6,10.1c2.2,2.5,3,5.2,2.5,8.1c-0.5,2.8-2.1,5.4-4.7,7.7c-2.1,1.8-4.2,2.9-6.4,3.3
				c-2.2,0.5-4.3,0.2-6.2-0.8l-5.7,13.1l-4.1-4.8l5.4-12.3l-3.8-4.4l-9.2,7.8L94.3,373.2z M111.1,366.4l3.9,4.6
				c1.3,1.5,2.7,2.2,4.2,2.2c1.6,0,3.2-0.7,4.8-2.1c1.6-1.4,2.6-2.8,2.8-4.4c0.2-1.5-0.3-3-1.5-4.5l-3.9-4.6L111.1,366.4z"/>
			<path class="st2" d="M178.6,431.3c-2,0.9-4.1,1.3-6.2,1.3c-2.1,0-4.2-0.5-6.1-1.3c-2-0.9-3.7-2.1-5.1-3.7
				c-1.5-1.6-2.5-3.4-3.2-5.5c-0.6-2.1-0.8-4.4-0.6-6.9c0.3-2.5,1-5,2-7.5c1.1-2.4,2.5-4.6,4.2-6.5c1.7-1.9,3.6-3.3,5.7-4.2
				c2.1-0.9,4.1-1.4,6.3-1.4c2.1,0,4.1,0.4,6,1.3c1.9,0.9,3.6,2.1,5,3.7c1.4,1.6,2.5,3.4,3.2,5.5c0.7,2.1,0.9,4.5,0.6,7
				c-0.3,2.5-1,5.1-2.1,7.5c-1.1,2.4-2.5,4.6-4.2,6.5C182.4,429,180.6,430.4,178.6,431.3z M163.6,420.1c0.3,1.3,0.9,2.5,1.8,3.6
				c0.9,1,1.9,1.8,3.1,2.4c1.2,0.5,2.5,0.8,3.9,0.8c1.4,0,2.7-0.4,3.9-1.1c1.2-0.7,2.4-1.7,3.5-3.1c1.1-1.4,2-2.9,2.8-4.7
				c0.8-1.7,1.3-3.5,1.6-5.2c0.3-1.8,0.3-3.3,0-4.7c-0.3-1.4-0.9-2.6-1.8-3.6c-0.9-1-1.9-1.8-3.1-2.4c-1.2-0.5-2.5-0.8-3.8-0.7
				c-1.4,0-2.6,0.4-3.8,1.1c-1.2,0.7-2.4,1.7-3.5,3.1c-1.1,1.4-2.1,3-2.8,4.7c-0.8,1.7-1.3,3.5-1.6,5.2
				C163.3,417.2,163.3,418.7,163.6,420.1z"/>
			<path class="st2" d="M326.9,402.8l-14.5,5.6l3.2,8.4l11.7-4.5l2.2,5.6l-11.7,4.5l3.2,8.4l14.5-5.6l2.2,5.7l-17.3,6.7l0,0
				l-2.8,1.1l-13-33.7l20.1-7.7L326.9,402.8z"/>
			<path class="st2" d="M394.3,372.6l5.6-2.6c1,2.2,1.6,4.4,1.8,6.5c0.2,2.1-0.2,4.2-1,6.2c-0.8,2.1-2.1,4-4,5.7
				c-1.9,1.7-3.9,2.8-6.2,3.3c-3,0.8-6.2,0.6-9.4-0.8c-3.3-1.3-6.1-3.4-8.6-6.2c-2.5-2.8-4.2-5.9-5.2-9.3c-1-3.4-0.8-6.5,0.4-9.4
				c0.8-2.2,2.2-4.1,4-5.7c1.9-1.7,3.9-2.8,6.1-3.3c2.1-0.6,4.4-0.7,6.7-0.1c2.3,0.5,4.5,1.5,6.5,2.9l0.1,0l-3.8,4.9
				c-1.4-1-2.7-1.7-3.9-2.1c-1.5-0.5-2.9-0.6-4.3-0.3c-1.4,0.3-2.7,1-3.8,1.9c-1.1,1-1.9,2.2-2.4,3.6c-0.5,1.4-0.6,2.9-0.3,4.4
				c0.2,1.3,0.8,2.6,1.6,4.1c0.8,1.5,1.9,2.9,3.1,4.3c1.2,1.3,2.5,2.5,3.8,3.5c1.3,1,2.6,1.7,3.9,2.1c1.5,0.5,2.9,0.6,4.4,0.2
				c1.5-0.3,2.7-1,3.8-2c1.1-1,1.9-2.2,2.4-3.6c0.5-1.4,0.6-2.8,0.2-4.4C395.6,375.3,395.1,374,394.3,372.6z"/>
			<path class="st2" d="M411.3,285.4l5.8,1.7l-3,10.1l28.8,8.5l-1.7,5.8l-28.8-8.5l-3,10.1l-5.8-1.7L411.3,285.4z"/>
		</g>
	</g>
</g>
</svg>
