<?xml version="1.0" encoding="UTF-8" standalone="no"?>
<!DOCTYPE svg PUBLIC "-//W3C//DTD SVG 1.1//EN" "http://www.w3.org/Graphics/SVG/1.1/DTD/svg11.dtd">
<svg width="100%" height="100%" viewBox="0 0 1667 1667" version="1.1" xmlns="http://www.w3.org/2000/svg" xmlns:xlink="http://www.w3.org/1999/xlink" xml:space="preserve" xmlns:serif="http://www.serif.com/" style="fill-rule:evenodd;clip-rule:evenodd;stroke-linejoin:round;stroke-miterlimit:1.41421;">
    <g id="Artboard1" transform="matrix(1.50262,0,0,2.53926,0,181.485)">
        <rect x="0" y="-71.472" width="1109.18" height="656.36" style="fill:none;"/>
        <g transform="matrix(4.143,0,0,2.45164,857.382,213.779)">
            <g id="Слой-1" serif:id="Слой 1">
                <path d="M0,35.13L-1.333,35.13L-2.444,40.228L-1.111,40.228C0.666,40.228 1.777,38.787 1.777,37.125C1.777,35.906 1.222,35.13 0,35.13M13.218,33.689L15.106,33.689L17.327,39.452L18.438,33.689L20.104,33.689L18.327,41.779L16.55,41.779L14.328,36.017L13.218,41.779L11.551,41.779L13.218,33.689ZM10.552,40.228L10.219,41.779L3.888,41.779L5.665,33.468L11.885,33.468L11.551,35.019L7.109,35.019L6.775,36.792L10.885,36.792L10.552,38.233L6.442,38.233L5.998,40.228L10.552,40.228ZM-1.111,41.779L-4.554,41.779L-2.888,33.579L0.111,33.579C2.333,33.579 3.554,34.798 3.554,36.792C3.554,39.674 1.999,41.779 -1.111,41.779M-5.554,38.233L-9.663,38.233L-10.108,40.228L-5.554,40.228L-5.887,41.779L-12.218,41.779L-10.441,33.579L-4.221,33.579L-4.554,35.019L-8.997,35.019L-9.33,36.792L-5.22,36.792L-5.554,38.233ZM-16.883,41.668L-17.105,35.906L-19.66,41.668L-21.437,41.668L-21.992,33.579L-20.215,33.579L-20.104,39.563L-17.549,33.579L-15.772,33.579L-15.55,39.563L-13.106,33.579L-11.329,33.579L-15.106,41.668L-16.883,41.668ZM-25.657,36.903C-24.325,37.236 -23.436,37.79 -23.436,39.23C-23.436,41.114 -25.213,41.89 -26.768,41.89C-29.101,41.89 -30.211,41.003 -30.211,39.009L-30.211,38.898L-28.434,38.898C-28.434,40.117 -27.657,40.449 -26.657,40.449C-25.991,40.449 -25.102,40.117 -25.102,39.341C-25.102,38.565 -26.213,38.455 -27.213,38.122C-28.323,37.79 -29.323,37.346 -29.323,35.906C-29.323,34.022 -27.657,33.357 -26.102,33.357C-24.436,33.357 -22.992,34.133 -22.992,36.017L-24.658,36.017C-24.658,35.13 -25.213,34.798 -26.102,34.798C-26.768,34.798 -27.546,35.019 -27.546,35.795C-27.546,36.571 -26.213,36.792 -25.657,36.903M12.995,23.051L25.102,23.051L25.102,12.745L12.884,12.745L12.884,7.315L28.212,7.315L28.212,-6.981L-7.331,-6.981L-7.331,28.924L-18.882,28.924L-18.882,-6.981L-39.097,-6.981L-38.986,46.434L28.323,46.434L28.323,28.924L12.995,28.924L12.995,23.051ZM-65.421,26.154C-65.421,28.259 -66.643,29.478 -68.642,29.478C-70.642,29.478 -71.863,28.259 -71.863,26.154L-71.863,-6.981L-92.19,-6.981L-92.19,28.148C-92.19,36.792 -85.192,48.317 -68.753,48.207C-52.315,48.096 -45.317,36.792 -45.206,28.148L-45.206,-6.981L-65.421,-6.981L-65.421,26.154ZM-118.625,10.972L-125.067,10.972L-125.067,-6.981L-145.393,-6.981L-145.393,46.434L-125.067,46.434L-125.067,28.259L-118.625,28.259L-118.625,46.434L-98.409,46.434L-98.409,-6.981L-118.625,-6.981L-118.625,10.972ZM-191.377,10.196L-180.603,10.196L-180.603,46.434L-160.276,46.434L-160.276,10.196L-149.503,10.196L-149.503,-6.981L-191.377,-6.981L-191.377,10.196ZM39.43,-3.213C37.098,-3.213 35.21,-4.986 35.21,-7.646C35.21,-10.084 37.098,-11.968 39.43,-11.968C41.763,-11.968 43.651,-10.195 43.651,-7.646C43.651,-5.097 41.763,-3.213 39.43,-3.213M39.43,-13.187C36.432,-13.187 33.655,-10.97 33.655,-7.646C33.655,-4.21 36.432,-1.994 39.43,-1.994C42.541,-1.994 45.206,-4.21 45.206,-7.646C45.206,-10.97 42.429,-13.187 39.43,-13.187M39.542,-8.089L38.542,-8.089L38.542,-9.751L39.542,-9.751C40.097,-9.751 40.763,-9.641 40.763,-8.976C40.763,-8.2 40.208,-8.089 39.542,-8.089M41.985,-8.865C41.985,-10.305 41.097,-10.749 39.542,-10.749L37.098,-10.749L37.098,-4.432L38.32,-4.432L38.32,-7.092L39.097,-7.092L40.652,-4.432L41.985,-4.432L40.319,-7.202C41.319,-7.313 41.985,-7.757 41.985,-8.865" style="fill:rgb(35,18,0);fill-rule:nonzero;"/>
            </g>
        </g>
    </g>
</svg>
