<?xml version="1.0" encoding="UTF-8" standalone="no"?>
<!DOCTYPE svg PUBLIC "-//W3C//DTD SVG 1.1//EN" "http://www.w3.org/Graphics/SVG/1.1/DTD/svg11.dtd">
<svg width="100%" height="100%" viewBox="0 0 1667 1667" version="1.1" xmlns="http://www.w3.org/2000/svg" xmlns:xlink="http://www.w3.org/1999/xlink" xml:space="preserve" xmlns:serif="http://www.serif.com/" style="fill-rule:evenodd;clip-rule:evenodd;stroke-linejoin:round;stroke-miterlimit:1.41421;">
    <g id="Artboard1" transform="matrix(0.511166,0,0,0.684391,-34.498,-30.8392)">
        <rect x="67.489" y="45.061" width="3260.52" height="2435.26" style="fill:none;"/>
        <g id="Layer-1" serif:id="Layer 1" transform="matrix(3.88542,0,0,2.90199,62.199,575.167)">
            <g transform="matrix(1,0,0,1,85.8622,270.305)">
                <path d="M0,14.095L0,43.125L5.409,43.125C14.361,43.125 20.403,42 23.515,39.737C26.625,37.479 28.187,34.193 28.187,29.881C28.187,25.001 26.36,21.154 22.701,18.331C19.047,15.507 12.975,14.095 4.48,14.095L0,14.095ZM0,-29.031L0,-5.16L4.72,-5.16C9.975,-5.16 13.877,-6.264 16.428,-8.469C18.979,-10.678 20.254,-13.68 20.254,-17.482C20.254,-21.025 19.042,-23.834 16.621,-25.912C14.199,-27.992 10.514,-29.031 5.567,-29.031L0,-29.031ZM-21.563,63.688L-21.563,-49.593L-3.749,-49.593C6.582,-49.593 14.139,-48.926 18.914,-47.593C25.701,-45.794 31.102,-42.456 35.107,-37.581C39.121,-32.703 41.124,-26.952 41.124,-20.33C41.124,-16.016 40.212,-12.103 38.389,-8.587C36.566,-5.072 33.601,-1.773 29.497,1.31C36.374,4.546 41.41,8.588 44.59,13.44C47.773,18.291 49.361,24.027 49.361,30.652C49.361,37.019 47.722,42.818 44.432,48.055C41.141,53.293 36.9,57.204 31.709,59.797C26.519,62.391 19.347,63.688 10.202,63.688L-21.563,63.688Z" style="fill:rgb(0,115,74);fill-rule:nonzero;"/>
            </g>
            <g transform="matrix(1,0,0,1,145.622,333.993)">
                <path d="M0,-83.784L21.024,-83.784L21.024,-52.434L49.974,-83.784L75.641,-83.784L38.33,-42.96L76.103,0L48.219,0L23.237,-29.596L21.024,-26.956L21.024,0L0,0L0,-83.784Z" style="fill:rgb(0,115,74);fill-rule:nonzero;"/>
            </g>
            <g transform="matrix(1,0,0,1,228.893,364.646)">
                <path d="M0,-114.437L21.486,-114.437L43.246,-61.866L67.262,-114.437L88.808,-114.437L36.335,0L14.618,0L31.851,-36.906L0,-114.437Z" style="fill:rgb(0,115,74);fill-rule:nonzero;"/>
            </g>
            <g transform="matrix(1,0,0,1,409.062,317.05)">
                <path d="M0,-49.904L-17.502,-40.276C-20.789,-43.717 -24.037,-46.104 -27.25,-47.439C-30.464,-48.777 -34.226,-49.438 -38.548,-49.438C-46.409,-49.438 -52.772,-47.097 -57.625,-42.403C-62.486,-37.713 -64.917,-31.709 -64.917,-24.372C-64.917,-17.247 -62.58,-11.427 -57.898,-6.921C-53.221,-2.409 -47.081,-0.149 -39.476,-0.149C-30.066,-0.149 -22.74,-3.359 -17.502,-9.782L-0.92,1.571C-9.911,13.255 -22.586,19.099 -38.963,19.099C-53.696,19.099 -65.237,14.737 -73.582,6.009C-81.927,-2.721 -86.095,-12.935 -86.095,-24.644C-86.095,-32.753 -84.066,-40.222 -80.009,-47.054C-75.953,-53.878 -70.295,-59.248 -63.029,-63.149C-55.763,-67.049 -47.637,-69.003 -38.655,-69.003C-30.335,-69.003 -22.868,-67.342 -16.244,-64.034C-9.62,-60.722 -4.207,-56.01 0,-49.904" style="fill:rgb(0,115,74);fill-rule:nonzero;"/>
            </g>
            <g transform="matrix(1,0,0,1,447.948,270.305)">
                <path d="M0,14.095L0,43.125L5.404,43.125C14.363,43.125 20.401,42 23.513,39.737C26.623,37.479 28.186,34.193 28.186,29.881C28.186,25.001 26.362,21.154 22.703,18.331C19.049,15.507 12.969,14.095 4.48,14.095L0,14.095ZM0,-29.031L0,-5.16L4.716,-5.16C9.973,-5.16 13.875,-6.264 16.431,-8.469C18.98,-10.678 20.252,-13.68 20.252,-17.482C20.252,-21.025 19.041,-23.834 16.618,-25.912C14.196,-27.992 10.517,-29.031 5.567,-29.031L0,-29.031ZM-21.563,63.688L-21.563,-49.593L-3.753,-49.593C6.577,-49.593 14.137,-48.926 18.916,-47.593C25.699,-45.794 31.1,-42.456 35.109,-37.581C39.119,-32.703 41.122,-26.952 41.122,-20.33C41.122,-16.016 40.21,-12.103 38.383,-8.587C36.568,-5.072 33.603,-1.773 29.495,1.31C36.372,4.546 41.404,8.588 44.588,13.44C47.776,18.291 49.363,24.027 49.363,30.652C49.363,37.019 47.725,42.818 44.425,48.055C41.139,53.293 36.898,57.204 31.707,59.797C26.517,62.391 19.349,63.688 10.204,63.688L-21.563,63.688Z" style="fill:rgb(0,115,74);fill-rule:nonzero;"/>
            </g>
            <g transform="matrix(1,0,0,1,523.226,250.209)">
                <path d="M0,83.784L-11.16,83.784L-11.16,0L9.32,0L9.32,49.207L52.216,0L62.307,0L62.307,83.784L41.817,83.784L41.817,35.577L0,83.784Z" style="fill:rgb(0,115,74);fill-rule:nonzero;"/>
            </g>
            <g transform="matrix(1,0,0,1,683.178,250.209)">
                <path d="M0,83.784L-21.409,83.784L-42.374,30.948L-63.723,83.784L-85.055,83.784L-49.318,0L-35.767,0L0,83.784Z" style="fill:rgb(0,115,74);fill-rule:nonzero;"/>
            </g>
            <g transform="matrix(1,0,0,1,777.591,250.209)">
                <path d="M0,83.784L-21.409,83.784L-42.378,30.948L-63.727,83.784L-85.063,83.784L-49.322,0L-35.771,0L0,83.784Z" style="fill:rgb(0,115,74);fill-rule:nonzero;"/>
            </g>
            <g transform="matrix(1,0,0,1,0,123.101)">
                <rect x="291.323" y="230.591" width="486.268" height="10.993" style="fill:rgb(0,115,74);"/>
            </g>
            <g transform="matrix(1,0,0,1,0,123.101)">
                <rect x="64.299" y="230.591" width="161.119" height="10.993" style="fill:rgb(0,115,74);"/>
            </g>
            <g transform="matrix(1,0,0,1,159.02,145.165)">
                <path d="M0,39.252C0,39.252 28.603,47.879 100.156,47.727C212.902,47.481 322.835,-11.601 376.201,-18.392C429.56,-25.183 459.934,-18.77 477.394,-8.096C494.865,2.579 504.626,19.441 504.626,19.441C504.626,19.441 462.916,-5.79 352.314,17.498C241.71,40.782 150.083,64.435 55.528,52.334C21.422,47.971 0,39.252 0,39.252" style="fill:rgb(166,206,56);fill-rule:nonzero;"/>
            </g>
            <g transform="matrix(1,0,0,1,433.916,162.847)">
                <path d="M0,34.767C0,34.767 92.765,4.626 139.015,2.311C185.261,0 206.564,6.252 224.283,13.189C242.017,20.126 248.953,29.373 248.953,29.373C248.953,29.373 210.029,15.453 163.787,15.453C117.55,15.453 0,34.767 0,34.767" style="fill:rgb(0,115,74);fill-rule:nonzero;"/>
            </g>
            <g transform="matrix(1,0,0,1,294.121,111.125)">
                <path d="M0,51.782C43.379,43.741 46.276,41.488 87.554,27.253C120.205,15.994 146.643,5.228 164.463,1.886C185.821,-2.12 194.56,-2.197 202.643,-1.855C220.762,-1.084 237.202,8.187 237.202,8.187C237.202,8.187 219.264,3.473 167.669,21.104C132.761,33.034 96.99,43.362 75.474,47.291C57.287,50.612 33.593,53.979 0,51.782" style="fill:rgb(0,115,74);fill-rule:nonzero;"/>
            </g>
        </g>
    </g>
</svg>
