<?xml version="1.0" encoding="UTF-8" standalone="no"?>
<!DOCTYPE svg PUBLIC "-//W3C//DTD SVG 1.1//EN" "http://www.w3.org/Graphics/SVG/1.1/DTD/svg11.dtd">
<svg width="100%" height="100%" viewBox="0 0 1667 1667" version="1.1" xmlns="http://www.w3.org/2000/svg" xmlns:xlink="http://www.w3.org/1999/xlink" xml:space="preserve" xmlns:serif="http://www.serif.com/" style="fill-rule:evenodd;clip-rule:evenodd;stroke-linejoin:round;stroke-miterlimit:1.41421;">
    <g id="Artboard1" transform="matrix(0.453209,0,0,0.57439,89.6018,-173.621)">
        <rect x="-197.706" y="302.27" width="3677.48" height="2901.63" style="fill:none;"/>
        <g id="Слой-1" serif:id="Слой 1" transform="matrix(7.66463,0,0,5.97793,-739.889,575.87)">
            <g transform="matrix(1.06421,0,0,1.06421,-19.9456,-424.884)">
                <path d="M381.241,566.602L398.826,566.602L380.629,618.822L284.94,683.371L360.763,586.499L292.906,545.886L388.503,545.886L381.241,566.602Z" style="fill:rgb(206,217,0);fill-rule:nonzero;"/>
            </g>
            <g transform="matrix(1.06421,0,0,1.06421,-19.9456,-635.761)">
                <path d="M440.147,744.04L388.966,744.04L433.838,683.371L440.147,744.04Z" style="fill:rgb(206,217,0);fill-rule:nonzero;"/>
            </g>
            <g transform="matrix(1.06421,0,0,1.06421,-19.9456,-461.105)">
                <path d="M448.097,620.745L449.97,683.371L413.236,658.094L440.672,579.922L523.236,579.922L448.097,620.745Z" style="fill:rgb(206,217,0);fill-rule:nonzero;"/>
            </g>
            <g transform="matrix(0.137918,1.05523,1.05523,-0.137918,-331.308,-212.753)">
                <path d="M440.241,681.345L440.406,681.345L440.47,681.834L440.314,681.905L440.241,681.345Z" style="fill:rgb(206,217,0);fill-rule:nonzero;"/>
            </g>
            <g transform="matrix(1.06421,0,0,1.06421,-19.9456,-529.385)">
                <path d="M142.879,659.083L135.436,659.083L136.736,652.654L143.872,652.654C145.108,652.654 146.058,652.866 146.722,653.309C147.387,653.766 147.715,654.435 147.715,655.299C147.715,657.821 146.101,659.083 142.879,659.083ZM145.172,674.518C144.265,675.197 143.065,675.513 141.572,675.513L132.142,675.513L133.507,668.37L142.936,668.37C143.972,668.37 144.829,668.803 145.515,669.303C146.194,669.796 146.537,670.582 146.537,671.489C146.537,672.775 146.079,673.832 145.172,674.518ZM155.223,663.465C157.659,662.436 159.566,661 160.931,659.157C162.295,657.314 162.974,655.179 162.974,652.735C162.974,649.428 161.652,646.651 159.002,644.858C156.359,643.058 152.494,641.939 147.408,641.939L124.392,641.939L115.705,685.514L140.764,685.514C146.722,685.514 151.594,684.498 155.373,682.176C159.159,679.862 161.052,676.485 161.052,671.891C161.052,669.905 160.545,668.246 159.531,666.818C158.516,665.389 157.081,664.294 155.223,663.465" style="fill:rgb(24,23,25);fill-rule:nonzero;"/>
            </g>
            <g transform="matrix(1.06421,0,0,1.06421,-19.9456,-529.25)">
                <path d="M201.342,652.528L203.57,641.812L168.274,641.812L159.588,685.388L179.282,685.388C179.347,685.388 179.418,685.514 179.49,685.5C182.261,684.785 185.204,684.509 188.333,684.509C189.876,684.509 191.348,684.65 192.755,684.821C192.776,684.821 192.798,684.775 192.819,684.775L197.927,674.672L176.153,674.672L177.268,668.957L195.691,668.957L197.805,657.528L179.44,657.528L180.433,652.528L201.342,652.528Z" style="fill:rgb(24,23,25);fill-rule:nonzero;"/>
            </g>
            <g transform="matrix(1.06421,0,0,1.06421,-19.9456,-528.611)">
                <path d="M230.365,660.195C228.444,659.452 226.079,658.751 223.265,658.087C220.95,657.552 219.286,657.059 218.271,656.601C217.257,656.144 216.75,655.523 216.75,654.737C216.75,653.951 217.314,653.273 218.428,652.694C219.543,652.115 221.115,651.822 223.143,651.822C225.293,651.822 227.394,652.094 229.437,652.63C231.487,653.165 233.359,653.972 235.052,655.051L240.324,644.379C238.302,643.179 235.887,642.257 233.101,641.621C230.308,640.978 227.301,640.657 224.072,640.657C219.564,640.657 215.657,641.329 212.349,642.672C209.042,644.015 206.506,645.922 204.749,648.379C202.992,650.844 202.113,653.708 202.113,656.973C202.113,659.58 202.827,661.673 204.249,663.266C205.677,664.859 207.342,666.038 209.249,666.802C211.149,667.567 213.549,668.324 216.443,669.067C218.636,669.61 220.236,670.103 221.25,670.56C222.265,671.01 222.772,671.61 222.772,672.36C222.772,673.146 222.272,673.76 221.279,674.217C220.286,674.675 218.864,674.903 217,674.903C211.914,674.903 207.035,673.56 202.363,670.867L196.712,681.661C198.863,682.983 201.591,684.047 204.906,684.854C208.213,685.661 211.749,686.068 215.514,686.068C219.979,686.068 223.865,685.397 227.172,684.047C230.48,682.704 233.023,680.818 234.802,678.375C236.58,675.932 237.473,673.103 237.473,669.874C237.473,667.31 236.766,665.245 235.366,663.674C233.959,662.102 232.294,660.945 230.365,660.195" style="fill:rgb(24,23,25);fill-rule:nonzero;"/>
            </g>
            <g transform="matrix(1.06421,0,0,1.06421,-19.9456,-529.385)">
                <path d="M244.281,641.939L238.681,653.368L251.403,653.368L245.009,685.514L259.654,685.514L266.04,653.368L278.755,653.368L281.055,641.939L244.281,641.939Z" style="fill:rgb(24,23,25);fill-rule:nonzero;"/>
            </g>
            <g transform="matrix(1.06421,0,0,1.06421,-19.9456,-336.29)">
                <path d="M183.197,562.646L185.233,552.607C184.34,552.664 183.447,552.504 182.525,552.504C179.454,552.504 176.632,551.931 174.046,551.216L150.13,551.216L141.451,594.792L174.218,594.792L179.782,584.076L158.016,584.076L159.13,577.647L177.554,577.647L179.668,567.646L161.302,567.646L162.288,562.646L183.197,562.646Z" style="fill:rgb(24,23,25);fill-rule:nonzero;"/>
            </g>
            <g transform="matrix(1.06421,0,0,1.06421,-19.9456,-335.562)">
                <path d="M212.228,569.494C210.306,568.751 207.935,568.051 205.127,567.387C202.806,566.851 201.141,566.358 200.134,565.901C199.12,565.444 198.613,564.822 198.613,564.036C198.613,563.251 199.17,562.572 200.284,561.993C201.405,561.415 202.977,561.122 204.999,561.122C207.149,561.122 209.249,561.393 211.299,561.929C213.342,562.465 215.214,563.272 216.914,564.351L222.186,553.678C220.157,552.478 217.75,551.557 214.957,550.921C212.164,550.278 209.156,549.957 205.934,549.957C201.42,549.957 197.512,550.628 194.205,551.971C190.898,553.314 188.362,555.221 186.604,557.679C184.847,560.143 183.969,563.008 183.969,566.272C183.969,568.88 184.683,570.98 186.111,572.566C187.54,574.159 189.205,575.338 191.105,576.102C193.005,576.873 195.405,577.623 198.298,578.366C200.491,578.909 202.092,579.402 203.106,579.859C204.12,580.309 204.627,580.909 204.627,581.659C204.627,582.445 204.134,583.06 203.141,583.517C202.148,583.974 200.72,584.202 198.863,584.202C193.769,584.202 188.89,582.86 184.218,580.166L178.575,590.96C180.725,592.289 183.454,593.353 186.761,594.153C190.069,594.961 193.605,595.368 197.37,595.368C201.834,595.368 205.728,594.696 209.035,593.353C212.342,592.003 214.885,590.117 216.664,587.674C218.443,585.231 219.329,582.402 219.329,579.174C219.329,576.609 218.629,574.545 217.221,572.973C215.814,571.401 214.15,570.244 212.228,569.494" style="fill:rgb(24,23,25);fill-rule:nonzero;"/>
            </g>
            <g transform="matrix(1.06421,0,0,1.06421,-19.9456,-336.29)">
                <path d="M226.136,551.216L220.543,562.646L233.259,562.646L226.872,594.792L241.509,594.792L247.903,562.646L260.618,562.646L262.911,551.216L226.136,551.216Z" style="fill:rgb(24,23,25);fill-rule:nonzero;"/>
            </g>
            <g transform="matrix(1.06421,0,0,1.06421,-19.9456,-432.077)">
                <path d="M141.8,624.771C139.715,627.15 136.785,628.366 133.021,628.366L123.513,628.366L127.606,607.65L135.879,607.65C138.814,607.65 141.058,608.355 142.608,609.727C144.158,611.098 144.936,613.07 144.936,615.592C144.936,619.313 143.893,622.392 141.8,624.771ZM157.03,604.917C155.252,602.145 152.701,599.983 149.373,598.49C146.043,596.997 142.1,596.221 137.55,596.221L115.262,596.221L106.576,639.796L132.528,639.796C137.779,639.796 142.465,638.736 146.579,636.686C150.694,634.643 153.909,631.702 156.223,627.923C158.538,624.137 159.702,619.735 159.702,614.727C159.702,610.97 158.809,607.689 157.03,604.917" style="fill:rgb(24,23,25);fill-rule:nonzero;"/>
            </g>
            <g transform="matrix(1.06421,0,0,1.06421,-19.9456,-432.079)">
                <path d="M193.991,622.227C193.084,624.256 191.769,625.871 190.055,627.063C188.333,628.264 186.319,628.864 184.004,628.864C181.354,628.864 179.275,628.099 177.768,626.57C176.26,625.042 175.503,622.992 175.503,620.427C175.503,618.027 175.961,615.82 176.868,613.791C177.775,611.762 179.089,610.155 180.811,608.955C182.525,607.755 184.54,607.155 186.855,607.155C189.505,607.155 191.583,607.919 193.091,609.448C194.598,610.977 195.355,613.027 195.355,615.591C195.355,617.991 194.898,620.198 193.991,622.227ZM207.42,604.611C205.62,601.675 203.056,599.39 199.727,597.754C196.398,596.125 192.526,595.303 188.097,595.303C182.847,595.303 178.139,596.404 173.982,598.589C169.831,600.783 166.581,603.854 164.245,607.805C161.909,611.755 160.738,616.248 160.738,621.299C160.738,625.099 161.638,628.471 163.438,631.407C165.238,634.342 167.803,636.629 171.131,638.265C174.46,639.9 178.339,640.715 182.761,640.715C188.012,640.715 192.719,639.622 196.877,637.429C201.034,635.236 204.277,632.164 206.613,628.214C208.949,624.263 210.121,619.77 210.121,614.719C210.121,610.919 209.221,607.547 207.42,604.611" style="fill:rgb(24,23,25);fill-rule:nonzero;"/>
            </g>
            <g transform="matrix(1.06421,0,0,1.06421,-19.9456,-432.077)">
                <path d="M244.731,596.22L240.702,616.444L228.229,596.22L216.193,596.22L207.513,639.796L221.779,639.796L225.808,619.573L238.28,639.796L250.317,639.796L258.996,596.22L244.731,596.22Z" style="fill:rgb(24,23,25);fill-rule:nonzero;"/>
            </g>
            <g transform="matrix(1.06421,0,0,1.06421,-19.9456,-432.077)">
                <path d="M261.025,596.22L258.81,607.229L267.676,596.22L261.025,596.22ZM270.79,596.22L261.061,607.479L260.911,607.65L271.448,607.65L265.054,639.796L279.698,639.796L286.085,607.65L298.807,607.65L301.1,596.22L270.79,596.22Z" style="fill:rgb(24,23,25);fill-rule:nonzero;"/>
            </g>
            <g transform="matrix(1.06421,0,0,1.06421,-19.9456,-336.29)">
                <path d="M127.749,571.352C126.635,572.366 125.063,572.647 123.035,572.647L117.02,572.647L119.063,562.646L123.97,562.646C127.606,562.646 129.428,564.142 129.428,567.078C129.428,568.9 128.871,570.338 127.749,571.352ZM141.179,575.979C143.229,573.107 144.251,569.75 144.251,565.899C144.251,561.392 142.672,557.679 139.507,555.172C136.343,552.672 131.907,551.217 126.199,551.217L106.719,551.217L98.04,594.792L112.677,594.792L114.848,584.077L118.448,584.077L124.585,594.792L139.786,594.792L132.528,582.267C136.25,580.86 139.136,578.858 141.179,575.979" style="fill:rgb(24,23,25);fill-rule:nonzero;"/>
            </g>
            <g transform="matrix(1.06421,0,0,1.06421,-19.9456,-298.912)">
                <path d="M338.496,552.335C337.761,551.621 336.803,551.264 335.61,551.264C334.318,551.264 333.224,551.678 332.339,552.514C331.453,553.342 331.01,554.428 331.01,555.771C331.01,556.893 331.381,557.814 332.131,558.536C332.874,559.265 333.839,559.622 335.032,559.622C336.303,559.622 337.382,559.207 338.268,558.378C339.153,557.543 339.596,556.457 339.596,555.121C339.596,553.971 339.232,553.042 338.496,552.335" style="fill:rgb(206,217,0);fill-rule:nonzero;"/>
            </g>
            <g transform="matrix(1.06421,0,0,1.06421,-19.9456,-314.839)">
                <path d="M353.505,568.594C352.098,568.594 350.969,568.187 350.112,567.38C349.261,566.572 348.833,565.494 348.833,564.158C348.833,562.815 349.097,561.622 349.612,560.572C350.133,559.529 350.855,558.707 351.783,558.129C352.712,557.543 353.769,557.25 354.962,557.25C356.969,557.25 358.484,558.136 359.498,559.907L365.006,555.6C364.184,554.15 362.934,553.036 361.248,552.242C359.562,551.457 357.627,551.064 355.448,551.064C352.683,551.064 350.212,551.642 348.04,552.792C345.868,553.95 344.175,555.557 342.954,557.607C341.732,559.665 341.125,562.008 341.125,564.644C341.125,566.63 341.604,568.387 342.561,569.923C343.525,571.459 344.89,572.651 346.647,573.502C348.411,574.359 350.447,574.787 352.755,574.787C354.962,574.787 356.898,574.437 358.57,573.744C360.248,573.058 361.741,571.901 363.063,570.28L358.555,565.972C357.112,567.723 355.426,568.594 353.505,568.594" style="fill:rgb(206,217,0);fill-rule:nonzero;"/>
            </g>
            <g transform="matrix(1.06421,0,0,1.06421,-19.9456,-314.839)">
                <path d="M381.307,565.129C380.828,566.187 380.143,567.029 379.25,567.651C378.35,568.28 377.3,568.594 376.093,568.594C374.707,568.594 373.621,568.194 372.835,567.394C372.042,566.594 371.649,565.529 371.649,564.186C371.649,562.937 371.885,561.779 372.364,560.722C372.835,559.665 373.521,558.822 374.421,558.193C375.314,557.565 376.371,557.25 377.578,557.25C378.964,557.25 380.05,557.65 380.835,558.45C381.629,559.25 382.021,560.322 382.021,561.658C382.021,562.915 381.779,564.072 381.307,565.129ZM388.322,555.921C387.386,554.393 386.043,553.193 384.307,552.343C382.564,551.493 380.543,551.064 378.228,551.064C375.485,551.064 373.028,551.635 370.856,552.778C368.685,553.928 366.984,555.529 365.77,557.593C364.549,559.657 363.934,562.008 363.934,564.644C363.934,566.63 364.406,568.387 365.349,569.923C366.284,571.459 367.627,572.651 369.363,573.502C371.106,574.359 373.128,574.787 375.442,574.787C378.185,574.787 380.643,574.209 382.814,573.065C384.986,571.923 386.679,570.316 387.901,568.251C389.122,566.194 389.729,563.844 389.729,561.208C389.729,559.222 389.265,557.457 388.322,555.921" style="fill:rgb(206,217,0);fill-rule:nonzero;"/>
            </g>
            <g transform="matrix(1.06421,0,0,1.06421,-19.9456,-315.764)">
                <path d="M414.524,551.931L405.031,563.989L400.101,551.931L393.88,551.931L389.343,574.79L396.308,574.79L398.351,564.532L401.852,572.647L405.223,572.647L411.61,564.403L409.595,574.79L416.567,574.79L421.039,551.931L414.524,551.931Z" style="fill:rgb(206,217,0);fill-rule:nonzero;"/>
            </g>
        </g>
    </g>
</svg>
