<?xml version="1.0" encoding="UTF-8" standalone="no"?>
<!DOCTYPE svg PUBLIC "-//W3C//DTD SVG 1.1//EN" "http://www.w3.org/Graphics/SVG/1.1/DTD/svg11.dtd">
<svg width="100%" height="100%" viewBox="0 0 800 800" version="1.1" xmlns="http://www.w3.org/2000/svg" xmlns:xlink="http://www.w3.org/1999/xlink" xml:space="preserve" xmlns:serif="http://www.serif.com/" style="fill-rule:evenodd;clip-rule:evenodd;stroke-linejoin:round;stroke-miterlimit:1.41421;">
    <g transform="matrix(1.69333,0,0,1.69333,40,252.452)">
        <path d="M27.276,81.199C26.281,84.903 22.772,87.875 19.433,87.875C19.433,87.875 1.559,87.875 1.559,87.887L6.356,69.967C7.356,66.287 10.861,63.29 14.204,63.29L26.032,63.29C29.372,63.29 31.273,66.287 30.289,69.967L27.276,81.199Z" style="fill:rgb(35,31,32);fill-rule:nonzero;"/>
        <path d="M67.349,81.221C66.355,84.903 62.845,87.898 59.505,87.898L32.373,87.898C32.361,87.909 37.181,69.99 37.181,69.99C38.188,66.297 41.687,63.313 45.036,63.313L66.094,63.313C69.433,63.313 71.345,66.297 70.351,69.99L67.349,81.221Z" style="fill:rgb(35,31,32);fill-rule:nonzero;"/>
        <path d="M116.636,81.209C115.641,84.903 112.131,87.898 108.804,87.898L72.417,87.898L77.243,69.979C78.237,66.308 81.736,63.301 85.085,63.301L115.381,63.301C118.719,63.301 120.633,66.308 119.648,69.979L116.636,81.209Z" style="fill:rgb(35,31,32);fill-rule:nonzero;"/>
        <path d="M35.739,49.76C34.766,53.463 31.256,56.458 27.918,56.458L10.031,56.458L14.829,38.54C15.813,34.858 19.323,31.863 22.667,31.863L34.495,31.863C37.844,31.863 39.746,34.858 38.763,38.54L35.739,49.76Z" style="fill:rgb(35,31,32);fill-rule:nonzero;"/>
        <path d="M75.784,49.76C74.8,53.441 71.29,56.437 67.94,56.437L40.818,56.437C40.818,56.458 45.627,38.54 45.627,38.54C46.622,34.847 50.121,31.863 53.47,31.863L74.54,31.863C77.878,31.863 79.78,34.847 78.796,38.54L75.784,49.76Z" style="fill:rgb(35,31,32);fill-rule:nonzero;"/>
        <path d="M125.082,49.76C124.098,53.441 120.588,56.437 117.238,56.437L80.869,56.437L85.7,38.529C86.683,34.836 90.192,31.863 93.532,31.863L123.838,31.863C127.166,31.863 129.078,34.836 128.082,38.529L125.082,49.76Z" style="fill:rgb(35,31,32);fill-rule:nonzero;"/>
        <path d="M44.201,18.31C43.206,21.991 39.696,24.987 36.357,24.987C36.357,24.987 18.483,24.987 18.483,25.009L23.28,7.079C24.27,3.386 27.774,0.401 31.128,0.401L42.958,0.401C46.285,0.401 48.197,3.386 47.213,7.079L44.201,18.31Z" style="fill:rgb(35,31,32);fill-rule:nonzero;"/>
        <path d="M84.252,18.299C83.256,21.991 79.758,24.987 76.419,24.987L49.274,24.987C49.274,24.997 54.094,7.079 54.094,7.079C55.09,3.397 58.6,0.401 61.938,0.401L83.007,0.401C86.346,0.401 88.258,3.397 87.264,7.079L84.252,18.299Z" style="fill:rgb(35,31,32);fill-rule:nonzero;"/>
        <path d="M133.538,18.288C132.543,21.98 129.033,24.976 125.695,24.976L89.32,24.976L94.156,7.057C95.129,3.375 98.639,0.379 101.978,0.379L132.283,0.379C135.622,0.379 137.534,3.375 136.551,7.057L133.538,18.288Z" style="fill:rgb(35,31,32);fill-rule:nonzero;"/>
        <path d="M274.106,16.343C273.377,16.298 268.313,17.006 266.823,21.682C266.313,23.428 262.918,35.257 262.301,37.556C266.657,37.556 291.43,37.655 294.78,37.601C298.559,37.545 301.456,34.626 302.03,32.338C302.694,30.005 305.149,21.682 305.149,21.682C305.922,18.133 303.6,16.453 300.727,16.431C300.713,16.375 274.106,16.343 274.106,16.343ZM238.112,87.964C228.198,87.909 226.948,80.038 228.319,75.439C229.756,70.476 244.415,19.647 246.481,12.75C248.106,7.554 256.441,0.147 263.538,0.302C264.709,0.302 308.874,0.269 317.309,0.269C324.051,0.302 329.202,6.006 326.813,14.43C324.958,20.83 321.165,33.94 320.514,36.362C319.938,38.915 313.526,53.463 301.799,53.54C291.485,53.607 257.722,53.552 257.722,53.552C257.801,53.507 252.374,71.858 252.395,71.825C281.379,71.825 296.192,71.846 296.192,71.846C296.192,71.846 295.774,73.24 291.53,87.942C290.159,87.942 286.09,87.964 238.112,87.964Z" style="fill:rgb(35,31,32);fill-rule:nonzero;"/>
        <path d="M213.799,71.858C209.327,71.858 212.03,71.858 170.759,71.935L185.361,21.604C186.633,17.414 191.127,16.32 192.563,16.353C192.553,16.387 229.911,16.387 229.911,16.387L234.553,0.313C226.485,0.347 185.124,0.347 181.774,0.347C175.909,0.247 166.944,5.498 164.319,14.452C164.298,14.32 148.384,69.47 146.627,75.505C145.111,79.995 147.384,88.462 158.604,88.019C174.645,87.909 208.979,87.909 208.979,87.909L213.799,71.858Z" style="fill:rgb(35,31,32);fill-rule:nonzero;"/>
        <path d="M369.706,16.364C364.577,16.519 362.586,20.885 362.364,21.593L349.895,64.683C349.895,64.683 372.348,64.705 381.047,64.683C386.155,64.396 388.057,60.682 388.411,59.311C388.366,59.344 397.475,28.192 399.286,21.616C399.95,19.095 398.856,16.42 395.108,16.375L369.706,16.364ZM333.956,120.464L310.51,120.464C310.51,120.464 338.667,23.03 341.583,12.971C344.436,2.823 355.512,0.49 360.165,0.358L413.061,0.358C421.95,0.358 426.504,6.991 424.868,12.904C423.122,19.283 410.11,63.7 408.508,69.691C405.377,79.806 396.448,80.812 391.549,80.779C381.368,80.701 345.487,80.757 345.364,80.812L333.956,120.464Z" style="fill:rgb(35,31,32);fill-rule:nonzero;"/>
        <path d="M5.129,143.49L2.774,143.49L2.774,150.167L0,150.167L0,152.422L2.774,152.422L2.774,162.415C2.774,163.245 2.989,163.952 3.387,164.56C3.725,165.024 4.631,166.075 5.173,166.461C5.831,166.948 6.738,167.234 7.644,167.234L10.269,167.234L10.269,164.97L7.677,164.97C7.356,164.97 7.096,164.902 6.953,164.825C6.34,164.494 5.582,163.686 5.229,163.034C5.173,162.912 5.129,162.626 5.129,162.338L5.129,152.422L10.302,152.422L10.302,150.167L5.129,150.167L5.129,143.49Z" style="fill:rgb(35,31,32);fill-rule:nonzero;"/>
        <path d="M25.834,150.72C25.21,150.267 24.247,149.968 23.38,149.968L20.561,149.968C19.992,149.968 19.312,150.244 18.522,150.797C18.112,151.13 17.637,151.538 17.184,152.023L17.184,143.49L14.829,143.49L14.829,167.247L17.184,167.247L17.15,154.865C17.184,154.832 17.195,154.777 17.256,154.688C17.764,153.77 19.356,152.742 20.141,152.334C20.262,152.279 20.479,152.234 20.671,152.234L23.341,152.234C23.628,152.234 23.816,152.279 23.988,152.367C24.602,152.71 25.437,153.594 25.79,154.245C25.845,154.38 25.889,154.589 25.889,154.865L25.889,167.247L28.233,167.247L28.233,154.777C28.233,153.97 28.028,153.24 27.625,152.633C27.293,152.18 26.387,151.13 25.834,150.72Z" style="fill:rgb(35,31,32);fill-rule:nonzero;"/>
        <path d="M44.782,163.046L44.737,163.145C44.416,163.709 43.571,164.693 42.968,165.024C42.814,165.135 42.609,165.156 42.322,165.156L38.204,165.156C37.944,165.156 37.772,165.135 37.602,165.024C36.982,164.682 36.143,163.798 35.816,163.156C35.739,163.012 35.7,162.803 35.7,162.526L35.7,159.739L47.02,159.739L47.02,154.777C47.02,153.914 46.843,153.218 46.457,152.633C46.13,152.168 45.224,151.117 44.665,150.72C44.035,150.257 43.074,149.968 42.178,149.968L38.248,149.968C37.331,149.968 36.38,150.257 35.76,150.72C35.192,151.117 34.285,152.168 33.959,152.633C33.561,153.252 33.356,153.97 33.356,154.777L33.356,162.613C33.356,163.433 33.561,164.151 33.97,164.77C34.285,165.212 35.192,166.262 35.76,166.66C36.38,167.135 37.331,167.424 38.248,167.424L42.244,167.424C43.14,167.424 44.068,167.135 44.704,166.66C45.246,166.262 46.163,165.212 46.489,164.77C46.715,164.45 46.887,164.206 47.059,163.875L47.113,163.764L44.902,163.012L44.782,163.046ZM37.64,152.379C37.817,152.268 37.978,152.245 38.248,152.245L42.134,152.245C42.404,152.245 42.621,152.279 42.775,152.379C43.399,152.742 44.284,153.616 44.61,154.258C44.676,154.367 44.676,154.601 44.676,154.854L44.676,157.495L35.7,157.495L35.7,154.854C35.7,154.601 35.739,154.38 35.805,154.258C36.143,153.616 37.016,152.742 37.64,152.379Z" style="fill:rgb(35,31,32);fill-rule:nonzero;"/>
        <rect x="61.955" y="150.167" width="2.343" height="17.08" style="fill:rgb(35,31,32);fill-rule:nonzero;"/>
        <rect x="61.794" y="143.314" width="2.659" height="2.73" style="fill:rgb(35,31,32);fill-rule:nonzero;"/>
        <path d="M80.792,150.72C80.156,150.257 79.205,149.968 78.298,149.968L75.358,149.968C74.793,149.968 74.126,150.244 73.329,150.797C72.96,151.085 72.484,151.516 72.042,151.98L71.815,150.167L69.471,150.167L69.753,153.054L69.753,167.247L72.107,167.247L72.086,154.644C72.689,153.705 74.418,152.633 74.982,152.334C75.121,152.268 75.291,152.234 75.479,152.234L78.255,152.234C78.536,152.234 78.74,152.279 78.9,152.367C79.536,152.732 80.405,153.616 80.747,154.245C80.792,154.367 80.792,154.589 80.792,154.865L80.792,167.247L83.146,167.247L83.146,154.777C83.146,153.914 82.964,153.208 82.582,152.633C82.25,152.18 81.333,151.13 80.792,150.72Z" style="fill:rgb(35,31,32);fill-rule:nonzero;"/>
        <path d="M92.531,143.49L90.188,143.49L90.188,150.167L87.402,150.167L87.402,152.422L90.188,152.422L90.188,162.415C90.188,163.245 90.392,163.952 90.801,164.56C91.127,165.024 92.034,166.075 92.586,166.461C93.222,166.948 94.15,167.234 95.046,167.234L97.671,167.234L97.671,164.97L95.091,164.97C94.77,164.97 94.499,164.902 94.367,164.825C93.752,164.494 92.984,163.686 92.641,163.034C92.575,162.912 92.531,162.626 92.531,162.338L92.531,152.422L97.705,152.422L97.705,150.167L92.531,150.167L92.531,143.49Z" style="fill:rgb(35,31,32);fill-rule:nonzero;"/>
        <path d="M113.441,163.046L113.396,163.145C113.104,163.709 112.242,164.693 111.639,165.024C111.484,165.135 111.269,165.156 110.998,165.156L106.875,165.156C106.604,165.156 106.443,165.135 106.267,165.024C105.653,164.682 104.813,163.798 104.476,163.156C104.41,163.012 104.365,162.803 104.365,162.526L104.365,159.739L115.696,159.739L115.696,154.777C115.696,153.914 115.503,153.218 115.116,152.633C114.801,152.168 113.883,151.117 113.331,150.72C112.706,150.257 111.744,149.968 110.838,149.968L106.919,149.968C106.001,149.968 105.051,150.257 104.432,150.72C103.862,151.117 102.962,152.168 102.63,152.633C102.22,153.252 102.033,153.97 102.033,154.777L102.033,162.613C102.033,163.433 102.22,164.151 102.63,164.77C102.962,165.212 103.862,166.262 104.432,166.66C105.051,167.135 106.001,167.424 106.919,167.424L110.904,167.424C111.811,167.424 112.739,167.135 113.374,166.66C113.917,166.262 114.822,165.212 115.159,164.77C115.386,164.45 115.547,164.206 115.718,163.875L115.774,163.764L113.579,163.012L113.441,163.046ZM106.322,152.379C106.466,152.268 106.648,152.245 106.919,152.245L110.805,152.245C111.075,152.245 111.291,152.279 111.451,152.379C112.07,152.742 112.943,153.616 113.27,154.258C113.353,154.367 113.353,154.601 113.353,154.854L113.353,157.495L104.365,157.495L104.365,154.854C104.365,154.601 104.41,154.38 104.476,154.258C104.802,153.616 105.676,152.742 106.322,152.379Z" style="fill:rgb(35,31,32);fill-rule:nonzero;"/>
        <path d="M123.302,165.998C123.208,165.5 123.108,164.947 123.108,164.45L123.108,143.49L120.765,143.49L120.765,164.925C120.765,165.346 120.87,165.821 120.97,166.284C121.024,166.583 121.091,166.871 121.129,167.135L121.141,167.234L123.484,167.234L123.473,167.114C123.423,166.749 123.357,166.373 123.302,165.998Z" style="fill:rgb(35,31,32);fill-rule:nonzero;"/>
        <path d="M131.122,165.998C131.034,165.477 130.929,164.947 130.929,164.45L130.929,143.49L128.585,143.49L128.585,164.925C128.585,165.346 128.69,165.821 128.779,166.284C128.845,166.583 128.917,166.871 128.938,167.135L128.95,167.234L131.294,167.234L131.282,167.114C131.25,166.749 131.178,166.373 131.122,165.998Z" style="fill:rgb(35,31,32);fill-rule:nonzero;"/>
        <rect x="136.347" y="143.314" width="2.669" height="2.73" style="fill:rgb(35,31,32);fill-rule:nonzero;"/>
        <rect x="136.506" y="150.167" width="2.354" height="17.08" style="fill:rgb(35,31,32);fill-rule:nonzero;"/>
        <path d="M155.84,150.167L155.625,152.102C155.139,151.583 154.619,151.117 154.21,150.797C153.431,150.244 152.751,149.968 152.188,149.968L148.903,149.968C147.998,149.968 147.014,150.267 146.411,150.72C145.847,151.117 144.941,152.18 144.609,152.633C144.229,153.208 144.045,153.914 144.045,154.777L144.045,162.613C144.045,163.487 144.229,164.196 144.609,164.77C144.941,165.224 145.847,166.262 146.411,166.66C147.014,167.135 147.998,167.424 148.903,167.424L152.188,167.424C152.751,167.424 153.431,167.135 154.21,166.583C154.619,166.284 155.105,165.853 155.559,165.378L155.559,169.103C155.559,169.38 155.559,169.591 155.503,169.723C155.16,170.364 154.276,171.248 153.657,171.602C153.486,171.701 153.282,171.746 153.011,171.746L148.938,171.746C148.678,171.746 148.494,171.701 148.324,171.602C147.727,171.27 146.798,170.308 146.488,169.645L146.455,169.568L144.172,170.308L144.261,170.43C144.78,171.325 145.62,172.542 146.594,173.261C147.213,173.714 148.19,174 149.048,174L153.043,174C153.95,174 154.923,173.714 155.548,173.261C156.089,172.851 156.996,171.801 157.333,171.348C157.72,170.772 157.901,170.066 157.901,169.181L157.901,153.096L158.195,150.167L155.84,150.167ZM155.57,162.526L155.503,162.681C154.857,163.587 153.26,164.704 152.602,165.058C152.479,165.135 152.275,165.169 152.071,165.169L148.938,165.169C148.655,165.169 148.451,165.135 148.29,165.024C147.666,164.682 146.831,163.798 146.488,163.145C146.422,163.012 146.39,162.803 146.39,162.526L146.39,154.865C146.39,154.589 146.422,154.38 146.488,154.258C146.831,153.594 147.666,152.71 148.29,152.379C148.451,152.268 148.655,152.234 148.938,152.234L152.071,152.234C152.275,152.234 152.479,152.268 152.602,152.334C153.26,152.687 154.857,153.814 155.493,154.656L155.559,154.82L155.57,162.526Z" style="fill:rgb(35,31,32);fill-rule:nonzero;"/>
        <path d="M174.6,163.046L174.556,163.145C174.246,163.709 173.389,164.693 172.787,165.024C172.644,165.135 172.438,165.156 172.146,165.156L168.034,165.156C167.763,165.156 167.591,165.135 167.426,165.024C166.813,164.682 165.983,163.798 165.624,163.156C165.568,163.012 165.519,162.803 165.519,162.526L165.519,159.739L176.839,159.739L176.839,154.777C176.839,153.914 176.661,153.218 176.275,152.633C175.948,152.168 175.042,151.117 174.483,150.72C173.854,150.257 172.903,149.968 171.996,149.968L168.066,149.968C167.16,149.968 166.199,150.257 165.579,150.72C165.021,151.117 164.12,152.168 163.777,152.633C163.368,153.252 163.181,153.97 163.181,154.777L163.181,162.613C163.181,163.433 163.368,164.151 163.777,164.77C164.12,165.212 165.021,166.262 165.579,166.66C166.199,167.135 167.16,167.424 168.066,167.424L172.063,167.424C172.97,167.424 173.887,167.135 174.522,166.66C175.075,166.262 175.981,165.212 176.318,164.77C176.545,164.45 176.706,164.206 176.866,163.875L176.933,163.764L174.722,163.012L174.6,163.046ZM167.471,152.379C167.625,152.268 167.808,152.245 168.066,152.245L171.952,152.245C172.234,152.245 172.438,152.279 172.594,152.379C173.219,152.742 174.103,153.616 174.429,154.258C174.5,154.367 174.5,154.601 174.5,154.854L174.5,157.495L165.519,157.495L165.519,154.854C165.519,154.601 165.568,154.38 165.624,154.258C165.95,153.616 166.823,152.742 167.471,152.379Z" style="fill:rgb(35,31,32);fill-rule:nonzero;"/>
        <path d="M192.967,150.72C192.343,150.257 191.392,149.968 190.463,149.968L187.545,149.968C186.976,149.968 186.301,150.244 185.516,150.797C185.135,151.085 184.671,151.516 184.217,151.98L184.002,150.167L181.647,150.167L181.94,153.054L181.94,167.247L184.284,167.247L184.262,154.644C184.848,153.705 186.595,152.633 187.158,152.334C187.296,152.268 187.468,152.234 187.655,152.234L190.43,152.234C190.711,152.234 190.916,152.279 191.077,152.367C191.712,152.732 192.58,153.616 192.922,154.245C192.979,154.367 192.979,154.589 192.979,154.865L192.979,167.247L195.321,167.247L195.321,154.777C195.321,153.914 195.14,153.208 194.764,152.633C194.427,152.18 193.52,151.13 192.967,150.72Z" style="fill:rgb(35,31,32);fill-rule:nonzero;"/>
        <path d="M204.718,143.49L202.374,143.49L202.374,150.167L199.589,150.167L199.589,152.422L202.374,152.422L202.374,162.415C202.374,163.245 202.579,163.952 202.972,164.56C203.313,165.024 204.221,166.075 204.762,166.461C205.408,166.948 206.326,167.234 207.232,167.234L209.848,167.234L209.848,164.97L207.266,164.97C206.945,164.97 206.686,164.902 206.542,164.825C205.939,164.494 205.16,163.686 204.817,163.034C204.762,162.912 204.718,162.626 204.718,162.338L204.718,152.422L209.892,152.422L209.892,150.167L204.718,150.167L204.718,143.49Z" style="fill:rgb(35,31,32);fill-rule:nonzero;"/>
        <path d="M233.604,157.674L227.137,157.177C226.331,157.1 225.754,156.545 225.754,155.838L225.754,154.666C225.754,154.402 225.788,154.19 225.854,154.047C226.196,153.417 226.86,152.732 227.5,152.379C227.657,152.279 227.856,152.234 228.155,152.234L232.299,152.234C232.563,152.234 232.717,152.257 232.907,152.379C233.536,152.732 234.442,153.693 234.741,154.335L234.786,154.412L237.03,153.628L236.985,153.506C236.875,153.263 236.522,152.777 236.432,152.633C236.102,152.18 235.194,151.117 234.62,150.72C234.024,150.267 233.051,149.968 232.188,149.968L228.098,149.968C227.223,149.968 226.274,150.267 225.649,150.72C225.108,151.117 224.362,152.014 224.008,152.478C223.614,153.096 223.411,153.814 223.411,154.634L223.411,155.806C223.411,157.739 224.915,159.31 226.926,159.476L233.381,159.951C234.178,160.016 234.764,160.581 234.764,161.287L234.764,162.691C234.764,162.957 234.719,163.179 234.665,163.3C234.333,163.93 233.604,164.671 232.973,165.024C232.817,165.135 232.631,165.169 232.364,165.169L227.633,165.169C227.346,165.169 227.147,165.135 226.969,165.024C226.374,164.682 225.495,163.709 225.198,163.079L225.153,162.969L222.901,163.753L222.946,163.863C223,164.007 223.163,164.261 223.305,164.505L223.499,164.793C223.813,165.234 224.7,166.262 225.258,166.66C225.866,167.135 226.838,167.424 227.711,167.424L232.409,167.424C233.293,167.424 234.256,167.135 234.864,166.66C235.415,166.284 236.167,165.378 236.5,164.902C236.918,164.306 237.118,163.599 237.118,162.78L237.118,161.364C237.118,159.431 235.592,157.839 233.604,157.674Z" style="fill:rgb(35,31,32);fill-rule:nonzero;"/>
        <path d="M253.391,150.72C252.749,150.244 251.831,149.968 250.938,149.968L247.864,149.968C247.309,149.968 246.635,150.244 245.852,150.797C245.475,151.085 245.034,151.506 244.481,152.102L244.258,150.167L241.917,150.167L242.159,153.054L242.159,173.823L244.502,173.823L244.502,165.522C244.967,166.008 245.43,166.44 245.852,166.749C246.625,167.291 247.309,167.59 247.864,167.59L250.938,167.59C251.831,167.59 252.749,167.291 253.391,166.816C253.944,166.418 254.85,165.378 255.182,164.902C255.581,164.317 255.778,163.587 255.778,162.77L255.778,154.777C255.778,153.97 255.581,153.24 255.17,152.633C254.85,152.18 253.944,151.13 253.391,150.72ZM253.436,154.865L253.436,162.691C253.436,162.957 253.413,163.168 253.346,163.3C252.993,163.952 252.151,164.825 251.534,165.189C251.377,165.278 251.178,165.323 250.893,165.323L247.997,165.323C247.819,165.323 247.643,165.291 247.508,165.224C246.647,164.77 245.067,163.753 244.569,162.88L244.526,162.735L244.502,154.865C244.502,154.811 244.526,154.743 244.569,154.688C245.122,153.748 246.915,152.643 247.499,152.334C247.643,152.268 247.819,152.234 247.997,152.234L250.893,152.234C251.178,152.234 251.377,152.279 251.555,152.367C252.151,152.71 252.993,153.594 253.346,154.245C253.413,154.38 253.436,154.589 253.436,154.865Z" style="fill:rgb(35,31,32);fill-rule:nonzero;"/>
        <path d="M272.006,150.72C271.364,150.257 270.403,149.968 269.499,149.968L265.584,149.968C264.678,149.968 263.715,150.257 263.096,150.72C262.543,151.13 261.637,152.18 261.307,152.633C260.918,153.208 260.73,153.914 260.73,154.777L260.73,162.613C260.73,163.487 260.918,164.184 261.307,164.77C261.637,165.224 262.543,166.273 263.096,166.66C263.715,167.135 264.678,167.424 265.584,167.424L269.499,167.424C270.403,167.424 271.364,167.135 272.006,166.66C272.536,166.273 273.467,165.224 273.797,164.748C274.172,164.184 274.372,163.487 274.372,162.613L274.372,154.777C274.372,153.914 274.172,153.208 273.797,152.633C273.467,152.18 272.536,151.13 272.006,150.72ZM272.006,154.865L272.006,162.526C272.006,162.803 272.006,163.012 271.94,163.145C271.608,163.775 270.747,164.659 270.106,165.024C269.95,165.124 269.752,165.169 269.463,165.169L265.627,165.169C265.352,165.169 265.131,165.124 264.977,165.024C264.379,164.682 263.516,163.82 263.196,163.156C263.118,163.012 263.075,162.803 263.075,162.526L263.075,154.865C263.075,154.611 263.118,154.38 263.184,154.245C263.516,153.594 264.379,152.71 264.977,152.367C265.131,152.279 265.352,152.234 265.627,152.234L269.463,152.234C269.752,152.234 269.95,152.279 270.106,152.367C270.747,152.732 271.608,153.616 271.94,154.245C272.006,154.367 272.006,154.589 272.006,154.865Z" style="fill:rgb(35,31,32);fill-rule:nonzero;"/>
        <path d="M291.395,152.633C291.077,152.202 290.204,151.117 289.639,150.72C289.008,150.244 288.081,149.968 287.172,149.968L285.227,149.968C284.653,149.968 283.977,150.244 283.204,150.809C282.817,151.085 282.375,151.506 281.954,151.946L281.868,152.014L281.645,150.167L279.301,150.167L279.545,153.054L279.545,167.234L281.889,167.234L281.889,154.688C282.375,153.793 283.946,152.787 284.809,152.334C284.94,152.279 285.139,152.245 285.338,152.245L287.262,152.245C287.547,152.245 287.747,152.279 287.903,152.379C288.522,152.72 289.362,153.727 289.749,154.29L289.793,154.367L292.059,153.639L291.969,153.506C291.86,153.317 291.629,152.941 291.395,152.633Z" style="fill:rgb(35,31,32);fill-rule:nonzero;"/>
        <path d="M298.848,143.49L296.491,143.49L296.491,150.167L293.717,150.167L293.717,152.422L296.491,152.422L296.491,162.415C296.491,163.245 296.702,163.952 297.1,164.571C297.442,165.024 298.35,166.085 298.889,166.461C299.532,166.948 300.459,167.234 301.366,167.234L303.975,167.234L303.975,164.97L301.389,164.97C301.081,164.97 300.813,164.902 300.659,164.825C300.063,164.494 299.301,163.686 298.958,163.034C298.889,162.912 298.848,162.626 298.848,162.338L298.848,152.422L304.02,152.422L304.02,150.167L298.848,150.167L298.848,143.49Z" style="fill:rgb(35,31,32);fill-rule:nonzero;"/>
        <path d="M318.491,157.674L312.012,157.177C311.206,157.1 310.653,156.545 310.653,155.838L310.653,154.666C310.653,154.402 310.674,154.19 310.741,154.047C311.073,153.417 311.737,152.732 312.377,152.379C312.553,152.279 312.752,152.234 313.042,152.234L317.174,152.234C317.44,152.234 317.627,152.257 317.793,152.379C318.424,152.732 319.319,153.693 319.629,154.335L319.651,154.412L321.907,153.628L321.872,153.528C321.772,153.263 321.418,152.777 321.309,152.633C320.979,152.18 320.071,151.117 319.518,150.72C318.899,150.267 317.938,149.968 317.065,149.968L312.997,149.968C312.112,149.968 311.163,150.267 310.52,150.72C309.977,151.117 309.239,152.014 308.883,152.478C308.497,153.096 308.288,153.814 308.288,154.634L308.288,155.806C308.288,157.739 309.792,159.31 311.815,159.476L318.258,159.951C319.065,160.016 319.651,160.581 319.651,161.287L319.651,162.691C319.651,162.957 319.608,163.179 319.54,163.3C319.209,163.93 318.491,164.671 317.86,165.024C317.706,165.135 317.53,165.169 317.264,165.169L312.532,165.169C312.245,165.169 312.024,165.135 311.87,165.024C311.272,164.682 310.389,163.709 310.067,163.079L310.034,162.969L307.778,163.753L307.846,163.863C307.889,164.019 308.055,164.273 308.209,164.515L308.397,164.793C308.719,165.256 309.592,166.262 310.133,166.66C310.764,167.135 311.715,167.424 312.598,167.424L317.309,167.424C318.17,167.424 319.143,167.135 319.739,166.66C320.305,166.262 321.043,165.378 321.387,164.902C321.795,164.306 321.995,163.599 321.995,162.78L321.995,161.364C321.995,159.431 320.481,157.839 318.491,157.674Z" style="fill:rgb(35,31,32);fill-rule:nonzero;"/>
        <path d="M343.44,164.736L339.395,150.167L336.188,150.167L332.364,164.736L328.317,150.167L325.786,150.167L330.727,167.157L330.75,167.234L333.868,167.234L337.78,153.163L341.815,167.157L341.838,167.234L344.944,167.234L349.719,150.299L349.764,150.167L347.288,150.167L343.44,164.736Z" style="fill:rgb(35,31,32);fill-rule:nonzero;"/>
        <path d="M364.997,163.046L364.952,163.145C364.643,163.709 363.793,164.682 363.161,165.024C363.03,165.135 362.819,165.156 362.532,165.156L358.43,165.156C358.155,165.156 357.987,165.135 357.811,165.024C357.204,164.682 356.362,163.808 356.02,163.156C355.954,163.012 355.911,162.803 355.911,162.526L355.911,159.739L367.229,159.739L367.229,154.777C367.229,153.914 367.053,153.218 366.667,152.633C366.346,152.168 365.438,151.117 364.875,150.72C364.256,150.257 363.295,149.968 362.377,149.968L358.454,149.968C357.547,149.968 356.594,150.257 355.977,150.72C355.413,151.117 354.506,152.168 354.186,152.633C353.764,153.252 353.565,153.959 353.565,154.777L353.565,162.613C353.565,163.433 353.764,164.151 354.186,164.77C354.506,165.212 355.413,166.262 355.977,166.66C356.594,167.135 357.547,167.424 358.454,167.424L362.454,167.424C363.36,167.424 364.278,167.135 364.93,166.66C365.459,166.262 366.368,165.212 366.7,164.77C366.92,164.473 367.098,164.219 367.274,163.875L367.319,163.764L365.129,163.012L364.997,163.046ZM357.856,152.379C358.01,152.268 358.186,152.245 358.454,152.245L362.344,152.245C362.608,152.245 362.831,152.279 362.985,152.379C363.625,152.742 364.487,153.616 364.831,154.258C364.885,154.367 364.885,154.601 364.885,154.854L364.885,157.495L355.911,157.495L355.911,154.854C355.911,154.611 355.954,154.38 356.02,154.258C356.34,153.616 357.225,152.742 357.856,152.379Z" style="fill:rgb(35,31,32);fill-rule:nonzero;"/>
        <path d="M385.668,154.777C385.668,153.827 385.491,153.131 385.116,152.599C384.829,152.245 383.944,151.096 383.325,150.72C382.684,150.244 381.745,149.968 380.825,149.968L377.223,149.968C376.272,149.968 375.432,150.212 374.792,150.697C374.217,151.14 373.375,152.102 373.022,152.599C372.778,152.887 372.602,153.218 372.424,153.506L372.348,153.628L374.602,154.367L374.647,154.303C375.09,153.605 375.909,152.71 376.502,152.379C376.67,152.268 376.836,152.245 377.112,152.245L380.784,152.245C381.069,152.245 381.268,152.279 381.422,152.379C382.065,152.742 382.928,153.616 383.258,154.226C383.282,154.322 383.325,154.501 383.325,154.82L383.325,157.1L376.647,157.1C375.719,157.1 374.836,157.363 374.172,157.851C373.641,158.304 372.747,159.287 372.424,159.718C372.004,160.349 371.817,161.033 371.817,161.862L371.817,162.658C371.817,163.465 372.026,164.196 372.424,164.793C372.747,165.246 373.641,166.219 374.172,166.66C374.836,167.157 375.719,167.424 376.647,167.424L380.075,167.424C380.815,167.424 381.534,166.98 382.065,166.583C382.485,166.284 383.004,165.831 383.391,165.433L383.622,167.234L385.956,167.234L385.668,164.328L385.668,154.777ZM383.346,162.713C382.838,163.653 381.024,164.77 380.45,165.058C380.331,165.135 380.151,165.156 379.965,165.156L376.67,165.156C376.393,165.156 376.184,165.135 376.018,165.024C375.389,164.671 374.602,163.843 374.26,163.245C374.194,163.089 374.161,162.89 374.161,162.658L374.161,161.862C374.161,161.608 374.194,161.443 374.26,161.31C374.602,160.668 375.389,159.852 376.028,159.508C376.184,159.421 376.393,159.364 376.67,159.364L383.325,159.364L383.346,162.713Z" style="fill:rgb(35,31,32);fill-rule:nonzero;"/>
        <path d="M403.532,153.506C403.413,153.307 403.178,152.941 402.946,152.643C402.625,152.202 401.764,151.117 401.19,150.72C400.557,150.257 399.629,149.968 398.756,149.968L396.778,149.968C396.213,149.968 395.53,150.257 394.766,150.809C394.358,151.085 393.915,151.506 393.506,151.936L393.418,152.014L393.208,150.167L390.864,150.167L391.096,153.054L391.096,167.247L393.452,167.247L393.428,154.688C393.926,153.793 395.506,152.787 396.37,152.334C396.479,152.279 396.702,152.245 396.901,152.245L398.823,152.245C399.1,152.245 399.309,152.279 399.475,152.367C400.073,152.72 400.913,153.727 401.299,154.29L401.354,154.367L403.622,153.639L403.532,153.506Z" style="fill:rgb(35,31,32);fill-rule:nonzero;"/>
    </g>
</svg>
