<?xml version="1.0" encoding="UTF-8" standalone="no"?>
<!DOCTYPE svg PUBLIC "-//W3C//DTD SVG 1.1//EN" "http://www.w3.org/Graphics/SVG/1.1/DTD/svg11.dtd">
<svg width="100%" height="100%" viewBox="0 0 1667 1667" version="1.1" xmlns="http://www.w3.org/2000/svg" xmlns:xlink="http://www.w3.org/1999/xlink" xml:space="preserve" xmlns:serif="http://www.serif.com/" style="fill-rule:evenodd;clip-rule:evenodd;stroke-miterlimit:10;">
    <g id="Artboard1" transform="matrix(1.2432,0,0,1.4422,91.2094,30.0354)">
        <rect x="-73.367" y="-20.826" width="1340.62" height="1155.64" style="fill:none;"/>
        <g id="Layer-1" serif:id="Layer 1" transform="matrix(3.35156,0,0,2.88911,-13.8428,-6.26505)">
            <g transform="matrix(1.37489,0,0,1.37489,294.777,50.078)">
                <path d="M0,112.592L4.34,112.592L4.34,33.102L-112.528,-27.352L-168.044,34.598L-168.044,139.944L-11.073,139.944L-11.073,135.305L-163.705,135.305L-163.705,35.795L-112.229,-22.264L0,36.394L0,112.592Z" style="fill:rgb(19,159,74);fill-rule:nonzero;"/>
            </g>
            <g transform="matrix(1.37489,0,0,1.37489,103.17,134.062)">
                <path d="M0,68.783L-7.782,45.241L-19.654,27.085C-19.654,27.085 -20.551,23.992 -17.458,25.438L-7.732,35.265C-7.732,35.265 -4.99,36.212 -3.542,34.616C-3.542,34.616 -1.821,34.192 -8.556,11.971C-8.556,11.971 -9.229,8.08 -5.861,9.726C-5.861,9.726 -0.626,23.718 1.247,28.506C1.247,28.506 3.79,30.901 5.81,28.357C5.81,28.357 6.857,21.847 6.335,2.469C6.335,2.469 7.158,0 9.402,2.469C9.402,2.469 11.047,21.773 11.57,26.187C11.57,26.187 12.769,29.778 15.538,26.785L23.316,7.407C23.316,7.407 25.488,5.836 25.936,8.679C25.936,8.679 22.793,20.351 20.325,27.384C20.325,27.384 19.203,37.709 21.597,44.442C21.597,44.442 24.366,50.053 31.099,47.585C31.099,47.585 42.398,38.009 44.268,42.348C44.268,42.348 38.956,46.987 34.167,51.177C34.167,51.177 21.298,60.054 23.99,68.783L0,68.783Z" style="fill:rgb(239,186,43);fill-rule:nonzero;"/>
            </g>
            <g transform="matrix(1.37489,0,0,1.37489,230.45,152.648)">
                <path d="M0,55.766C0,55.766 -5.987,45.59 -7.183,40.7C-7.183,40.7 -12.569,31.91 -14.963,30.22C-14.963,30.22 -15.861,26.934 -12.069,28.231C-12.069,28.231 -5.486,31.921 -1.495,38.306C-1.495,38.306 1.997,39.205 3.69,29.229C3.69,29.229 3.892,25.937 -2.794,13.567C-2.794,13.567 -4.389,6.484 0.398,9.676L8.679,24.539C8.679,24.539 11.172,26.534 11.373,23.343L13.267,3.79C13.267,3.79 15.664,0 17.559,4.289C17.559,4.289 16.062,24.34 16.959,26.236C16.959,26.236 18.454,27.134 18.956,25.239L26.637,7.48C26.637,7.48 29.429,4.589 29.429,9.277C29.429,9.277 22.945,27.832 24.241,30.825C24.241,30.825 25.838,31.822 27.135,29.728C27.135,29.728 38.309,19.353 39.604,24.141C39.604,24.141 31.922,32.32 27.533,35.614C27.533,35.614 22.846,52.771 20.649,55.265L20.489,55.766L0,55.766Z" style="fill:rgb(21,159,74);fill-rule:nonzero;"/>
            </g>
            <g transform="matrix(1.37489,0,0,1.37489,112.014,86.8476)">
                <path d="M0,52.049C0,52.049 -10.921,34.092 -12.618,25.812C-12.618,25.812 -14.866,17.332 -6.31,18.43C-6.31,18.43 0.249,20.725 7.533,36.486C7.533,36.486 2.744,3.814 2.895,1.121C2.895,1.121 4.09,-4.716 10.974,-2.92C10.974,-2.92 15.015,-1.423 15.913,7.705L20.7,31.946L21.748,-3.263C21.748,-3.263 22.048,-9.503 27.134,-9.653C27.134,-9.653 33.27,-10.701 34.168,-3.667L36.113,32.395L45.989,1.421C45.989,1.421 48.534,-3.219 54.219,0.971C54.219,0.971 55.916,3.416 53.721,15.486C53.721,15.486 46.999,48.918 51.077,58.732L51.656,62.75L48.334,58.882C48.334,58.882 46.27,47.474 48.633,35.188C48.633,35.188 55.858,1.57 52.544,2.069C52.544,2.069 49.732,-0.61 47.188,2.518C47.188,2.518 36.962,37.184 35.666,40.475L34.27,39.379C34.27,39.379 32.573,-2.62 32.073,-3.818C32.073,-3.818 30.503,-9.877 25.489,-6.137C25.489,-6.137 22.596,-1.323 22.996,37.982C22.996,37.982 21.399,40.077 19.104,37.783C19.104,37.783 15.813,10.848 11.024,-0.426C11.024,-0.426 7.185,-2.47 5.687,0.423C5.687,0.423 5.737,13.84 11.223,40.575C11.223,40.575 10.526,44.466 7.633,42.071C7.633,42.071 1.149,27.706 -5.536,21.122C-5.536,21.122 -10.325,18.928 -10.425,23.417C-10.425,23.417 -8.44,35.987 0.046,48.058L0,52.049Z" style="fill:rgb(1,140,204);fill-rule:nonzero;"/>
            </g>
            <g transform="matrix(1.37489,0,0,1.37489,221.546,72.6857)">
                <path d="M0,101.053L-23.4,99.859C-23.4,99.859 -46.794,82.493 -54.376,60.403C-54.376,60.403 -56.122,53.32 -46.245,54.218C-46.245,54.218 -39.512,58.358 -28.04,72.873C-28.04,72.873 -24.746,76.513 -21.956,70.129C-21.956,70.129 -18.412,59.157 -23.5,30.126C-23.5,30.126 -26.542,12.071 -21.556,11.371C-21.556,11.371 -15.868,9.376 -14.672,15.761L-7.39,44.69C-7.39,44.69 -4.048,10.823 -3,6.783C-3,6.783 -0.905,0 6.078,5.486C6.078,5.486 7.925,19.801 6.875,42.247C6.875,42.247 13.16,18.754 15.705,12.02C15.705,12.02 20.743,6.882 23.436,13.865C23.436,13.865 19.644,40.901 17.25,50.477C17.25,50.477 18.447,52.273 20.044,49.08C20.044,49.08 28.123,36.411 32.514,31.324C32.514,31.324 39.996,27.577 39.098,36.733C39.098,36.733 33.464,50.979 23.761,66.44C23.761,66.44 24.296,62.82 23.873,62.105C23.873,62.105 39.199,35.738 36.729,34.54C36.729,34.54 35.756,31.922 32.763,34.391C32.763,34.391 23.293,48.082 18.751,55.04C18.751,55.04 14.956,58.109 14.356,53.694C14.356,53.694 14.856,49.33 15.155,46.012C15.155,46.012 21.54,17.358 20.743,13.566C20.743,13.566 18.547,11.047 16.752,14.414L9.121,44.416C9.121,44.416 8.148,47.708 7.024,48.532C7.024,48.532 4.557,49.055 4.332,45.689C4.332,45.689 4.882,12.071 4.282,7.481C4.282,7.481 3.284,4.014 -0.756,6.857C-0.756,6.857 -3.699,26.335 -4.496,45.489C-4.496,45.489 -4.382,51.375 -8.579,48.982C-8.579,48.982 -12.776,34.716 -17.267,14.964C-17.267,14.964 -19.461,10.673 -22.753,15.062C-22.753,15.062 -23.951,16.21 -19.76,44.641C-19.76,44.641 -16.617,65.44 -19.76,71.277C-19.76,71.277 -23.55,80.804 -30.035,73.821C-30.035,73.821 -45.498,57.959 -45.797,57.261C-45.797,57.261 -49.987,53.87 -52.48,58.658C-52.48,58.658 -53.778,58.658 -49.987,65.841C-49.987,65.841 -37.718,88.586 -21.556,97.564L-0.706,98.859L0,101.053Z" style="fill:rgb(237,31,36);fill-rule:nonzero;"/>
            </g>
            <g transform="matrix(1.37489,0,0,1.37489,195.567,186.787)">
                <path d="M0,-14.347C0,-14.347 11.332,-27.051 19.561,-28.098C19.561,-28.098 25.92,-28.921 24.126,-19.719C24.126,-19.719 18.488,-3.98 -2.66,14.574L-5.01,13.159C-5.01,13.159 23.377,-11.364 21.481,-23.933C21.481,-23.933 21.234,-26.725 15.547,-24.431C15.547,-24.431 6.97,-19.141 -2.01,-9.616C-2.01,-9.616 -0.56,-12.608 0,-14.347" style="fill:rgb(1,140,204);fill-rule:nonzero;"/>
            </g>
            <g transform="matrix(1.37489,0,0,1.37489,141.223,211.283)">
                <path d="M0,1.001L27.988,0.55L32.398,-3.043L34.381,-1.438L28.436,3.093L-2.168,4.044L0,1.001Z" style="fill:rgb(1,140,204);fill-rule:nonzero;"/>
            </g>
            <g transform="matrix(1.37489,0,0,1.37489,293.976,307.46)">
                <path d="M0,-43.041L4.923,-43.069L4.923,0.028L-150.701,0.028L-150.701,-3.714L0.134,-3.714L0,-43.041Z" style="fill:rgb(12,98,51);fill-rule:nonzero;"/>
            </g>
            <g transform="matrix(1.37489,0,0,1.37489,87.5337,248.245)">
                <path d="M0,32.523L0,-0.299L31.723,-0.299L31.723,32.822L22.046,32.822L22.046,7.782L10.176,7.782L10.176,32.722L0,32.722L0,32.523Z" style="fill:rgb(11,131,65);fill-rule:nonzero;"/>
            </g>
            <g transform="matrix(1.37489,0,0,1.37489,160.715,278.693)">
                <path d="M0,-11.906L-1.709,-5.904L-2.691,-2.545L3,-2.545L1.915,-6.144L0.309,-11.906L0,-11.906ZM5.587,4.946L-5.278,4.946L-7.142,10.754L-18.06,10.754L-5.072,-22.66L5.639,-22.66L18.42,10.754L7.553,10.754L5.587,4.946Z" style="fill:rgb(11,131,65);fill-rule:nonzero;"/>
            </g>
            <g transform="matrix(1.37489,0,0,1.37489,216.14,278.756)">
                <path d="M0,-11.859C0,-13.112 -0.396,-13.972 -1.187,-14.438C-1.977,-14.904 -2.922,-15.137 -4.032,-15.137L-8.516,-15.137L-8.516,-8.726L-3.829,-8.726C-3.394,-8.726 -2.94,-8.783 -2.471,-8.895C-1.999,-9.007 -1.589,-9.192 -1.236,-9.448C-0.885,-9.706 -0.589,-10.028 -0.354,-10.412C-0.119,-10.799 0,-11.28 0,-11.859M9.971,-11.81C9.971,-10.268 9.635,-8.854 8.963,-7.57C8.292,-6.283 7.376,-5.166 6.219,-4.217C5.061,-3.27 3.691,-2.53 2.112,-2.001C0.533,-1.47 -1.162,-1.206 -2.974,-1.206L-8.516,-1.206L-8.516,10.847L-18.638,10.847L-18.638,-22.706L-3.125,-22.706C-1.11,-22.706 0.704,-22.448 2.315,-21.934C3.926,-21.421 5.296,-20.696 6.42,-19.766C7.544,-18.835 8.417,-17.693 9.039,-16.342C9.66,-14.993 9.971,-13.481 9.971,-11.81" style="fill:rgb(11,131,65);fill-rule:nonzero;"/>
            </g>
            <g transform="matrix(1.37489,0,0,1.37489,244.038,355.872)">
                <path d="M0,-6.928C0,-7.657 -0.231,-8.16 -0.692,-8.433C-1.152,-8.705 -1.706,-8.842 -2.353,-8.842L-4.971,-8.842L-4.971,-5.097L-2.235,-5.097C-1.981,-5.097 -1.716,-5.128 -1.442,-5.197C-1.167,-5.26 -0.927,-5.37 -0.722,-5.52C-0.514,-5.669 -0.344,-5.858 -0.206,-6.081C-0.069,-6.308 0,-6.59 0,-6.928M5.826,-6.898C5.826,-5.996 5.629,-5.171 5.237,-4.421C4.844,-3.67 4.311,-3.018 3.633,-2.464C2.957,-1.909 2.157,-1.48 1.236,-1.17C0.314,-0.861 -0.676,-0.704 -1.735,-0.704L-4.971,-0.704L-4.971,6.335L-10.884,6.335L-10.884,-13.263L-1.823,-13.263C-0.647,-13.263 0.412,-13.112 1.354,-12.811C2.296,-12.511 3.095,-12.089 3.752,-11.545C4.408,-11.001 4.917,-10.334 5.28,-9.546C5.643,-8.756 5.826,-7.874 5.826,-6.898" style="fill:rgb(12,98,51);fill-rule:nonzero;"/>
            </g>
            <g transform="matrix(1.37489,0,0,1.37489,215.551,347.577)">
                <path d="M0,5.276C-0.139,5.05 -0.31,4.86 -0.52,4.711C-0.726,4.557 -0.97,4.451 -1.243,4.383C-1.521,4.317 -1.789,4.284 -2.044,4.284L-4.8,4.284L-4.8,8.057L-2.163,8.057C-1.512,8.057 -0.953,7.919 -0.489,7.644C-0.023,7.371 0.208,6.866 0.208,6.128C0.208,5.788 0.139,5.504 0,5.276M5.527,8.765C5.159,9.558 4.646,10.23 3.985,10.778C3.323,11.326 2.518,11.751 1.57,12.055C0.622,12.355 -0.445,12.506 -1.629,12.506L-10.756,12.506L-10.756,-7.23L-4.8,-7.23L-4.8,-0.141L-1.54,-0.141C-0.474,-0.141 0.524,0.015 1.451,0.329C2.381,0.641 3.187,1.075 3.866,1.633C4.547,2.192 5.086,2.846 5.48,3.604C5.877,4.36 6.074,5.19 6.074,6.097C6.074,7.083 5.89,7.97 5.527,8.765" style="fill:rgb(12,98,51);fill-rule:nonzero;"/>
            </g>
            <g transform="matrix(1.37489,0,0,1.37489,236.486,247.971)">
                <path d="M0,32.922L0,0.199L9.777,0.199L9.777,12.769L11.272,12.769C11.272,12.769 13.666,12.171 14.865,7.583C14.865,7.583 15.942,0.098 21.249,0L29.005,0L29.005,6.524C29.005,6.524 24.142,5.837 22.496,11.023C22.496,11.023 21.797,14.566 18.157,15.963C18.157,15.963 22.869,18.382 23.992,21.746C23.992,21.746 28.184,30.802 29.903,32.524L18.605,32.524C18.605,32.524 14.49,21.224 12.322,20.102L9.626,20.102L9.626,32.922L0,32.922Z" style="fill:rgb(11,131,65);fill-rule:nonzero;"/>
            </g>
            <g transform="matrix(1.37489,0,0,1.37489,118.1,337.5)">
                <path d="M0,19.69L0.075,0.121L5.995,0.121L5.995,7.732L6.9,7.732C6.9,7.732 8.351,7.37 9.075,4.591C9.075,4.591 9.728,0.06 12.939,0L17.636,0L17.636,3.948C17.636,3.948 14.693,3.532 13.695,6.674C13.695,6.674 13.274,8.817 11.069,9.664C11.069,9.664 13.921,11.128 14.601,13.167C14.601,13.167 17.138,18.648 18.18,19.69L11.339,19.69C11.339,19.69 8.849,12.85 7.535,12.169L5.904,12.169L5.904,19.69L0,19.69Z" style="fill:rgb(12,98,51);fill-rule:nonzero;"/>
            </g>
            <g transform="matrix(1.37489,0,0,1.37489,155.025,322.075)">
                <path d="M0,-3.276L0.109,-3.338C0.484,-3.548 1.101,-3.908 2.248,-3.908C4.43,-3.908 6.459,-2.478 6.459,0.442C6.459,3.153 4.563,5.568 0.749,5.568C0.064,5.568 -3.044,5.46 -2.845,4.39L-2.559,2.857C-2.559,2.795 -2.515,2.668 -2.361,2.668C-2.207,2.668 -2.118,2.711 -1.766,2.836C-1.501,2.921 -0.574,3.298 0.639,3.298C2.49,3.298 3.923,2.33 3.923,0.485C3.923,-0.756 3.283,-1.703 1.608,-1.703C0,-1.703 -0.199,-0.589 -0.706,-0.589C-0.75,-0.589 -0.816,-0.566 -1.039,-0.629L-2.361,-1.03C-2.515,-1.069 -2.735,-1.155 -2.714,-1.3L-2.008,-8.424C-1.963,-8.844 -1.876,-8.823 -1.632,-8.823L4.917,-8.823C5.446,-8.823 5.38,-8.592 5.38,-8.402L5.38,-7.057C5.38,-6.847 5.446,-6.616 4.917,-6.616L0.374,-6.616L0,-3.276Z" style="fill:rgb(12,98,51);fill-rule:nonzero;stroke:rgb(12,98,51);stroke-width:0.83px;"/>
            </g>
            <g transform="matrix(1.37489,0,0,1.37489,178.752,319.593)">
                <path d="M0,0C0,-2.291 -0.198,-5.104 -2.426,-5.104C-4.654,-5.104 -4.852,-2.291 -4.852,0C-4.852,2.29 -4.654,5.104 -2.426,5.104C-0.198,5.104 0,2.29 0,0M-2.426,7.373C-4.983,7.373 -7.651,5.818 -7.651,0C-7.651,-6.071 -4.718,-7.373 -2.426,-7.373C-0.134,-7.373 2.801,-6.071 2.801,0C2.801,5.818 0.131,7.373 -2.426,7.373" style="fill:rgb(12,98,51);fill-rule:nonzero;"/>
            </g>
            <g transform="matrix(1.37489,0,0,1.37489,178.752,319.593)">
                <path d="M0,0C0,-2.291 -0.198,-5.104 -2.426,-5.104C-4.654,-5.104 -4.852,-2.291 -4.852,0C-4.852,2.29 -4.654,5.104 -2.426,5.104C-0.198,5.104 0,2.29 0,0ZM-2.426,7.373C-4.983,7.373 -7.651,5.818 -7.651,0C-7.651,-6.071 -4.718,-7.373 -2.426,-7.373C-0.134,-7.373 2.801,-6.071 2.801,0C2.801,5.818 0.131,7.373 -2.426,7.373Z" style="fill:none;stroke:rgb(12,98,51);stroke-width:0.83px;"/>
            </g>
            <g transform="matrix(1.37489,0,0,1.37489,180.49,355.444)">
                <path d="M0,-6.244C0,-5.906 0.098,-5.632 0.29,-5.424C0.482,-5.216 0.783,-5.113 1.191,-5.113L3.538,-5.113L3.538,-7.531L1.191,-7.531C0.808,-7.531 0.512,-7.407 0.308,-7.16C0.102,-6.913 0,-6.606 0,-6.244M-6.713,-6.166C-6.713,-7.023 -6.575,-7.855 -6.297,-8.663C-6.021,-9.467 -5.593,-10.178 -5.017,-10.789C-4.439,-11.399 -3.699,-11.892 -2.797,-12.27C-1.894,-12.646 -0.816,-12.837 0.432,-12.837L10.359,-12.837L10.359,6.593L3.501,6.593L3.501,-0.314L2.851,-0.314C2.515,-0.314 2.178,-0.158 1.841,0.154C1.504,0.466 1.204,1.116 0.939,2.104L-0.252,6.593L-7.325,6.593L-5.847,1.636C-5.655,1.012 -5.431,0.466 -5.179,-0.002C-4.926,-0.472 -4.439,-0.847 -3.717,-1.133C-4.752,-1.654 -5.511,-2.395 -5.991,-3.355C-6.473,-4.32 -6.713,-5.255 -6.713,-6.166" style="fill:rgb(12,98,51);fill-rule:nonzero;"/>
            </g>
            <g transform="matrix(1.37489,0,0,1.37489,264.637,355.444)">
                <path d="M0,-6.244C0,-5.906 0.097,-5.632 0.29,-5.424C0.48,-5.216 0.781,-5.113 1.191,-5.113L3.539,-5.113L3.539,-7.531L1.191,-7.531C0.806,-7.531 0.513,-7.407 0.308,-7.16C0.102,-6.913 0,-6.606 0,-6.244M-6.715,-6.166C-6.715,-7.023 -6.574,-7.855 -6.297,-8.663C-6.023,-9.467 -5.595,-10.178 -5.017,-10.789C-4.44,-11.399 -3.699,-11.892 -2.795,-12.27C-1.894,-12.646 -0.817,-12.837 0.435,-12.837L10.361,-12.837L10.361,6.593L3.502,6.593L3.502,-0.314L2.853,-0.314C2.515,-0.314 2.177,-0.158 1.841,0.154C1.505,0.466 1.202,1.116 0.939,2.104L-0.252,6.593L-7.326,6.593L-5.847,1.636C-5.655,1.012 -5.433,0.466 -5.179,-0.002C-4.928,-0.472 -4.44,-0.847 -3.719,-1.133C-4.753,-1.654 -5.509,-2.395 -5.993,-3.355C-6.473,-4.32 -6.715,-5.255 -6.715,-6.166" style="fill:rgb(12,98,51);fill-rule:nonzero;"/>
            </g>
            <g transform="matrix(1.37489,0,0,1.37489,273.734,324.355)">
                <path d="M0,-3.489C0,-3.299 0.051,-3.147 0.16,-3.03C0.269,-2.913 0.436,-2.856 0.665,-2.856L1.976,-2.856L1.976,-4.208L0.665,-4.208C0.449,-4.208 0.284,-4.138 0.17,-4.001C0.055,-3.862 0,-3.691 0,-3.489M-3.755,-3.444C-3.755,-3.925 -3.677,-4.388 -3.521,-4.841C-3.367,-5.291 -3.129,-5.687 -2.807,-6.028C-2.483,-6.37 -2.068,-6.645 -1.565,-6.857C-1.061,-7.067 -0.459,-7.174 0.241,-7.174L5.788,-7.174L5.788,3.685L1.956,3.685L1.956,-0.174L1.591,-0.174C1.404,-0.174 1.216,-0.087 1.027,0.087C0.839,0.262 0.67,0.626 0.522,1.178L-0.143,3.685L-4.096,3.685L-3.271,0.916C-3.162,0.568 -3.038,0.262 -2.896,0C-2.755,-0.262 -2.483,-0.472 -2.079,-0.633C-2.659,-0.923 -3.082,-1.337 -3.349,-1.874C-3.619,-2.413 -3.755,-2.936 -3.755,-3.444" style="fill:rgb(12,98,51);fill-rule:nonzero;"/>
            </g>
            <g transform="matrix(1.37489,0,0,1.37489,100.104,358.676)">
                <path d="M0,-10.828C-0.519,-10.828 -0.957,-10.743 -1.316,-10.576C-1.671,-10.408 -1.953,-10.184 -2.159,-9.907C-2.365,-9.628 -2.516,-9.309 -2.614,-8.957C-2.71,-8.605 -2.76,-8.241 -2.76,-7.869L-2.76,-2.929C-2.76,-2.539 -2.717,-2.168 -2.63,-1.813C-2.543,-1.46 -2.397,-1.148 -2.193,-0.88C-1.986,-0.608 -1.704,-0.396 -1.348,-0.236C-0.991,-0.078 -0.541,0.002 0,0.002C1.039,0.002 1.78,-0.268 2.225,-0.808C2.667,-1.349 2.892,-2.056 2.892,-2.929L2.892,-7.869C2.892,-8.669 2.675,-9.363 2.241,-9.95C1.807,-10.536 1.06,-10.828 0,-10.828M0,-15.349C1.624,-15.349 3.025,-15.142 4.204,-14.735C5.385,-14.324 6.365,-13.759 7.144,-13.033C7.924,-12.306 8.496,-11.447 8.865,-10.451C9.233,-9.455 9.417,-8.381 9.417,-7.228L9.417,-3.599C9.417,-2.37 9.216,-1.261 8.815,-0.265C8.416,0.732 7.82,1.581 7.03,2.289C6.24,2.997 5.255,3.545 4.074,3.936C2.895,4.327 1.539,4.521 0,4.521C-1.687,4.521 -3.123,4.304 -4.302,3.864C-5.483,3.429 -6.441,2.837 -7.176,2.094C-7.912,1.35 -8.447,0.489 -8.782,-0.489C-9.12,-1.465 -9.287,-2.502 -9.287,-3.599L-9.287,-7.228C-9.287,-8.269 -9.12,-9.277 -8.782,-10.256C-8.447,-11.232 -7.907,-12.098 -7.16,-12.852C-6.413,-13.604 -5.454,-14.209 -4.286,-14.666C-3.116,-15.121 -1.687,-15.349 0,-15.349" style="fill:rgb(12,98,51);fill-rule:nonzero;"/>
            </g>
            <g transform="matrix(-1.37489,-0,0,1.37489,436.343,291.629)">
                <rect x="155.587" y="33.463" width="15.758" height="3.816" style="fill:rgb(12,98,51);"/>
            </g>
            <g transform="matrix(1.37489,0,0,1.37489,152.064,358.355)">
                <path d="M0,-10.402L-5.735,-10.402L-5.735,-15.069L11.823,-15.069L11.823,-10.402L5.587,-10.402L5.587,4.667L0.009,4.667L0,-10.402Z" style="fill:rgb(12,98,51);fill-rule:nonzero;"/>
            </g>
            <g transform="matrix(1.37489,0,0,1.37489,237.624,325.68)">
                <path d="M0,-5.614L-3.094,-5.614L-3.094,-8.129L6.372,-8.129L6.372,-5.614L3.011,-5.614L3.011,2.515L0.004,2.515L0,-5.614Z" style="fill:rgb(12,98,51);fill-rule:nonzero;"/>
            </g>
            <g transform="matrix(1.37489,0,0,1.37489,87.5337,314.491)">
                <path d="M0,10.724L0,0L3.491,0L3.491,4.989L4.387,4.989L8.28,0L11.373,0L11.373,10.724L8.28,10.724L8.28,5.58L3.69,10.624L3.603,10.724L0,10.724Z" style="fill:rgb(12,98,51);fill-rule:nonzero;"/>
            </g>
            <g transform="matrix(1.37489,0,0,1.37489,248.502,314.491)">
                <path d="M0,10.724L0,0L3.493,0L3.493,4.989L4.391,4.989L8.282,0L11.373,0L11.373,10.724L8.282,10.724L8.282,5.58L3.692,10.624L3.606,10.724L0,10.724Z" style="fill:rgb(12,98,51);fill-rule:nonzero;"/>
            </g>
            <g transform="matrix(1.37489,0,0,1.37489,107.696,314.491)">
                <path d="M0,10.724L0,0L4.039,0L6.582,5.688L7.331,5.688L10.074,0.1L13.916,0.1L13.916,10.724L11.021,10.724L11.021,5.14L8.23,10.724L5.68,10.724L3.242,5.14L3.242,10.724L0,10.724Z" style="fill:rgb(12,98,51);fill-rule:nonzero;"/>
            </g>
            <g transform="matrix(-1.37489,-0,0,1.37489,280.799,264.779)">
                <rect x="105.104" y="43.34" width="3.592" height="3.591" style="fill:rgb(12,98,51);"/>
            </g>
            <g transform="matrix(1.37489,0,0,1.37489,63.7358,377.448)">
                <path d="M0,-45.79L3.74,-45.79L3.74,-3.892L169.689,-3.892L169.689,0L0,0L0,-45.79Z" style="fill:rgb(12,98,51);fill-rule:nonzero;"/>
            </g>
            <g transform="matrix(1.37489,0,0,1.37489,223.434,326.028)">
                <path d="M0,-6.328C-0.619,-6.328 -1.156,-6.164 -1.613,-5.841C-2.068,-5.518 -2.356,-5.068 -2.474,-4.494L2.21,-4.494C2.237,-5.126 2.04,-5.59 1.613,-5.885C1.186,-6.179 0.648,-6.328 0,-6.328M0,-8.633C1.9,-8.633 3.267,-8.074 4.098,-6.952C4.93,-5.832 5.14,-4.364 4.727,-2.554L-2.497,-2.554C-2.393,-1.117 -1.451,-0.333 0.332,-0.203C0.949,-0.175 1.421,-0.182 1.744,-0.224C2.747,-0.34 3.592,-0.548 4.286,-0.85L4.64,1.348C3.299,1.967 1.922,2.276 0.509,2.276C-1.304,2.305 -2.772,1.816 -3.898,0.811C-5.025,-0.196 -5.59,-1.569 -5.59,-3.307C-5.56,-5.018 -5.005,-6.335 -3.922,-7.253C-2.839,-8.174 -1.533,-8.633 0,-8.633" style="fill:rgb(14,103,53);fill-rule:nonzero;"/>
            </g>
            <g transform="matrix(-1.37489,-0,0,1.37489,391.619,255.866)">
                <rect x="144.507" y="46.929" width="5.389" height="2.896" style="fill:rgb(12,98,51);"/>
            </g>
            <g transform="matrix(1.37489,0,0,1.37489,194.444,314.503)">
                <path d="M0,10.644L0,8.023L1.947,8.023L1.947,0L12.474,0L12.474,10.644L8.979,10.644L8.979,2.887L5.64,2.887L5.64,8.772C5.64,8.772 5.239,10.246 4.143,10.644L0,10.644Z" style="fill:rgb(12,98,51);fill-rule:nonzero;"/>
            </g>
        </g>
    </g>
</svg>
