<?xml version="1.0" encoding="UTF-8" standalone="no"?>
<!DOCTYPE svg PUBLIC "-//W3C//DTD SVG 1.1//EN" "http://www.w3.org/Graphics/SVG/1.1/DTD/svg11.dtd">
<svg width="100%" height="100%" viewBox="0 0 1667 1667" version="1.1" xmlns="http://www.w3.org/2000/svg" xmlns:xlink="http://www.w3.org/1999/xlink" xml:space="preserve" xmlns:serif="http://www.serif.com/" style="fill-rule:evenodd;clip-rule:evenodd;stroke-linejoin:round;stroke-miterlimit:1.41421;">
    <g id="Artboard1" transform="matrix(1.41471,0,0,1.9235,-333.253,-466.909)">
        <rect x="235.562" y="242.74" width="1178.1" height="866.478" style="fill:none;"/>
        <g transform="matrix(4.53764,0,0,3.33739,-6.51607,197.467)">
            <g id="Layer-1" serif:id="Layer 1">
                <g>
                    <g transform="matrix(1,0,0,1,159.635,152.736)">
                        <path d="M0,25.753C0.854,25.719 1.443,25.094 1.999,24.651C5.97,21.482 9.831,18.198 13.159,14.179C14.923,12.049 16.461,9.541 18.187,6.877C19.698,4.547 21.968,1.883 26.041,2.399C28.928,2.764 30.625,4.851 31.276,7.36C32.003,10.152 31.476,13.592 31.069,16.589C30.491,20.893 29.534,25.288 29.485,30.232C29.463,32.524 29.577,34.973 31,35.813C33.919,37.525 37.748,34.616 39.542,33.331C42.524,31.195 45.933,29.194 48.017,25.959C48.276,25.558 48.554,25.177 48.845,24.79C49.123,24.415 49.53,24.005 49.671,23.687C50.058,22.813 50.159,21.452 50.358,20.379C50.571,19.239 50.856,18.06 50.704,17.071C50.12,16.614 49.437,16.985 48.845,17.071C44.005,17.788 39.953,14.281 41.267,9.563C42.481,5.193 46.586,4.842 51.53,4.053C52.333,3.926 53.175,3.878 53.526,3.432C53.963,2.887 54.075,1.639 54.288,0.885C54.997,-1.643 55.583,-4.637 56.077,-7.246C56.785,-10.98 57.671,-14.078 61.244,-15.236C65.588,-16.646 68.887,-13.281 69.304,-9.862C69.569,-7.693 68.927,-5.678 68.479,-3.801C68.021,-1.892 67.388,-0.236 67.237,1.779C68.579,2.292 70.252,1.772 71.922,1.711C73.606,1.649 75.375,1.359 77.021,1.503C80.423,1.801 83.308,4.396 82.669,8.6C81.854,13.948 76.106,13.994 70.271,14.386C69.342,14.449 68.467,14.515 67.446,14.594C66.714,14.647 65.329,14.689 64.896,15.075C64.235,15.664 64.376,17.91 64.274,19.278C63.935,23.886 64.452,28.941 65.241,32.641C65.786,35.202 66.601,37.692 67.789,39.738C68.84,41.547 71.017,43.592 73.853,43.321C75.621,43.149 77.208,41.996 78.536,41.047C81.26,39.097 83.497,36.848 85.631,34.364C86.627,33.206 87.909,31.874 88.524,30.369C89.36,28.326 89.429,25.844 89.901,23.617C90.378,21.379 90.796,19.155 91.487,17.071C94.125,9.1 97.911,1.794 104.508,-2.424C107.724,-4.479 112.897,-5.589 117.252,-3.525C121.001,-1.751 123.399,1.354 122.485,7.084C120.683,18.409 113.597,25.47 105.884,31.057C105.198,31.555 104.394,32.143 103.474,32.709C102.767,33.147 101.354,33.58 101.131,34.501C100.813,35.82 101.751,38.193 102.166,39.117C102.771,40.472 103.612,41.57 104.646,42.424C106.459,43.919 110.035,45.447 113.463,44.904C116.349,44.444 118.894,42.299 120.628,40.494C122.905,38.124 123.883,34.674 128.688,35.121C131.554,35.389 133.399,37.593 133.784,40.15C134.26,43.287 132.646,45.685 131.168,47.453C128.287,50.904 124.083,54.295 119.594,56.065C117.104,57.047 114.03,57.696 110.983,57.442C102.512,56.736 96.64,53.465 92.795,47.935C92.495,47.504 92.136,46.615 91.694,46.558C90.989,46.466 89.959,47.824 89.419,48.279C87.319,50.057 84.823,51.992 82.53,53.308C79.329,55.149 74.593,56.573 69.58,55.444C62.162,53.774 57.935,48.461 54.976,42.218C54.396,40.992 54.084,39.581 52.219,39.668C51.196,39.717 50.587,40.604 49.808,41.322C48.3,42.714 46.851,43.616 45.261,44.835C44.438,45.467 43.485,45.636 42.573,46.145C40.882,47.088 39.009,48.017 36.788,48.418C29.065,49.81 22.516,46.556 19.705,41.942C18.175,39.434 17.23,36.378 17.086,32.503C17.042,31.319 17.326,30.02 16.81,28.784C16.14,28.644 15.812,29.328 15.432,29.678C12.614,32.28 9.23,34.718 6.202,37.119C4.406,38.543 2.5,39.817 0.553,40.978C-0.982,41.89 -2.628,42.516 -4.959,42.631C-5.598,42.662 -6.409,42.45 -7.163,42.631C-8.145,42.868 -9.846,44.971 -10.608,45.661C-14.014,48.755 -17.842,51.462 -21.63,53.999C-24.058,55.623 -26.771,57.251 -29.898,58.682C-33.04,60.122 -36.398,61.271 -40.507,60.817C-48.323,59.956 -53.092,56.107 -55.249,49.728C-56.963,44.659 -56.04,37.806 -55.179,32.434C-54.888,30.613 -54.271,28.822 -54.146,27.063C-54.018,25.218 -55.033,23.732 -54.492,21.689C-54.285,20.908 -53.904,20.171 -53.526,19.621C-53.125,19.037 -52.535,18.616 -52.217,17.831C-51.888,17.015 -51.743,16.009 -51.529,15.075C-50.909,12.385 -50.057,9.508 -49.462,6.809C-49.042,4.908 -48.643,3.07 -48.153,1.228C-47.673,-0.585 -47.096,-2.398 -46.982,-4.353C-47.684,-4.791 -48.501,-4.543 -49.187,-4.559C-51.375,-4.611 -53.517,-5.242 -55.179,-6.006C-57.436,-7.042 -59.142,-8.705 -59.795,-11.31C-60.549,-14.314 -59.282,-17.115 -57.935,-19.025C-56.461,-21.116 -54.883,-22.574 -52.908,-23.918C-49.069,-26.527 -44.731,-28.863 -39.956,-30.875C-35.402,-32.793 -30.279,-34.887 -24.524,-35.283C-21.114,-35.518 -18.043,-35.033 -15.223,-34.388C-12.363,-33.734 -9.785,-33.003 -7.647,-31.771C-3.138,-29.176 -0.341,-25.412 0.965,-20.059C1.705,-17.027 1.637,-14.222 1.104,-10.966C0.09,-4.771 -1.177,-0.167 -4.064,4.19C-4.638,5.055 -5.356,6.041 -6.269,7.084C-6.876,7.778 -8.639,9.045 -8.61,9.772C-8.592,10.256 -7.498,10.899 -7.026,11.285C-4.229,13.573 -2.023,16.671 -0.826,20.448C-0.316,22.056 -0.371,23.796 0,25.753M-34.168,7.978C-32.365,7.244 -30.561,6.642 -28.45,6.258C-27.41,6.067 -26.297,6.057 -25.143,5.774C-22.776,5.193 -20.469,3.154 -18.393,1.503C-16.407,-0.076 -14.381,-2.348 -13.364,-4.489C-12.254,-6.826 -11.108,-10.979 -10.883,-14.41C-10.514,-20.053 -13.783,-21.428 -18.325,-22.333C-20.754,-22.816 -22.844,-23.03 -25.212,-22.676C-25.965,-22.564 -27.012,-22.258 -27.899,-21.988C-28.803,-21.715 -29.955,-21.49 -30.311,-21.025C-30.773,-20.417 -30.873,-18.277 -31.068,-17.234C-31.811,-13.264 -32.664,-9.449 -33.548,-5.936C-34.502,-2.15 -35.262,1.445 -36.235,5.154C-36.55,6.354 -37.103,7.559 -36.923,8.805C-35.894,8.881 -35,8.32 -34.168,7.978M108.217,7.545C107.198,8.067 106.428,8.759 105.954,9.426C105.396,10.212 104.339,12.516 104.093,14.043C103.92,15.12 103.829,16.637 104.577,16.866C104.94,16.978 105.312,17.158 105.825,17.037C106.325,16.917 107.065,16.607 107.332,16.419C108.437,15.634 108.976,14.942 109.915,13.949C110.651,13.171 111.321,12.149 111.672,11.563C112.685,9.869 112.538,6.887 110.226,7.152C109.498,7.235 108.929,7.18 108.217,7.545M-22.25,18.726C-23.905,19.211 -25.367,20.349 -26.936,21.137C-30.989,23.175 -34.813,24.817 -39.128,26.649C-39.938,26.994 -41.154,27.415 -41.47,27.888C-41.848,28.45 -41.93,29.781 -42.161,30.989C-42.376,32.122 -42.623,33.331 -42.781,34.158C-43.162,36.175 -43.689,38.533 -43.813,40.772C-43.97,43.592 -43.67,46.734 -41.814,47.798C-40.936,48.302 -38.897,48.602 -37.544,48.279C-35.01,47.676 -32.591,46.104 -30.449,44.835C-26.157,42.294 -21.853,39.17 -18.325,35.88C-16.65,34.316 -14.603,32.085 -13.709,29.954C-13.166,28.66 -12.46,26.012 -12.742,24.374C-13.333,20.971 -17.62,18.916 -21.148,18.657C-21.516,18.631 -21.992,18.703 -22.114,18.726C-22.156,18.733 -22.208,18.712 -22.25,18.726" style="fill:rgb(35,31,32);fill-rule:nonzero;"/>
                    </g>
                    <g transform="matrix(1,0,0,1,184.781,145.22)">
                        <path d="M0,-12.612C1.271,-12.804 2.826,-12.571 3.649,-12.199C5.957,-11.154 8.166,-7.716 6.406,-4.139C4.549,-0.357 -1.417,0.192 -3.789,-3.45C-6.313,-7.326 -3.75,-12.045 0,-12.612" style="fill:rgb(35,31,32);fill-rule:nonzero;"/>
                    </g>
                    <g transform="matrix(1,0,0,1,241.46,144.116)">
                        <path d="M0,-6.687C0.572,-6.687 1.122,-6.544 1.648,-6.257C2.177,-5.97 2.591,-5.558 2.893,-5.023C3.191,-4.488 3.343,-3.928 3.343,-3.342C3.343,-2.761 3.195,-2.208 2.9,-1.677C2.605,-1.15 2.193,-0.739 1.664,-0.441C1.136,-0.147 0.581,0 0,0C-0.582,0 -1.141,-0.147 -1.665,-0.441C-2.193,-0.739 -2.605,-1.15 -2.902,-1.677C-3.196,-2.208 -3.344,-2.761 -3.344,-3.342C-3.344,-3.928 -3.193,-4.488 -2.893,-5.023C-2.592,-5.558 -2.178,-5.97 -1.65,-6.257C-1.124,-6.544 -0.574,-6.687 0,-6.687M0.004,-6.034C-0.456,-6.034 -0.896,-5.917 -1.318,-5.688C-1.741,-5.458 -2.073,-5.126 -2.316,-4.696C-2.561,-4.267 -2.682,-3.815 -2.682,-3.342C-2.682,-2.874 -2.563,-2.427 -2.325,-2.004C-2.088,-1.578 -1.758,-1.246 -1.332,-1.007C-0.906,-0.769 -0.461,-0.651 0.004,-0.651C0.473,-0.651 0.917,-0.769 1.341,-1.007C1.766,-1.246 2.098,-1.578 2.334,-2.004C2.572,-2.427 2.693,-2.874 2.693,-3.342C2.693,-3.815 2.572,-4.267 2.328,-4.696C2.083,-5.126 1.753,-5.458 1.328,-5.688C0.904,-5.917 0.463,-6.034 0.004,-6.034M-1.512,-1.555L-1.512,-5.102L-0.79,-5.102C-0.115,-5.102 0.263,-5.099 0.345,-5.093C0.583,-5.074 0.768,-5.027 0.9,-4.951C1.034,-4.876 1.143,-4.765 1.232,-4.611C1.32,-4.458 1.366,-4.291 1.366,-4.105C1.366,-3.847 1.283,-3.629 1.113,-3.447C0.947,-3.264 0.713,-3.151 0.411,-3.109C0.518,-3.068 0.6,-3.021 0.658,-2.974C0.716,-2.926 0.796,-2.835 0.898,-2.702C0.924,-2.666 1.012,-2.523 1.162,-2.269L1.58,-1.555L0.689,-1.555L0.393,-2.13C0.189,-2.515 0.025,-2.761 -0.105,-2.861C-0.236,-2.961 -0.402,-3.012 -0.604,-3.012L-0.79,-3.012L-0.79,-1.555L-1.512,-1.555ZM-0.79,-3.571L-0.499,-3.571C-0.083,-3.571 0.176,-3.587 0.277,-3.619C0.376,-3.651 0.457,-3.708 0.516,-3.787C0.572,-3.867 0.602,-3.958 0.602,-4.058C0.602,-4.158 0.572,-4.246 0.518,-4.323C0.459,-4.4 0.38,-4.457 0.275,-4.488C0.17,-4.523 -0.088,-4.539 -0.499,-4.539L-0.79,-4.539L-0.79,-3.571Z" style="fill:rgb(35,31,32);fill-rule:nonzero;"/>
                    </g>
                    <g transform="matrix(1,0,0,1,122.776,85.1102)">
                        <path d="M0,13.786C-0.886,15.281 -1.676,16.764 -1.222,18.3C3.224,18.64 4.022,15.331 4.326,11.53C2.122,10.425 0.949,12.188 0,13.786M22.379,13.693C24.82,12.999 26.34,10.884 26.517,8.239C24.766,9.684 23.228,11.345 22.379,13.693M41.844,12.941C42.896,11.936 43.659,9.703 43.253,7.863C42.318,9.091 41.929,10.865 41.844,12.941M18.052,1.938C18.542,-0.863 19.665,-3.534 19.56,-6.617C18.388,-4.496 17.857,-1.235 18.052,1.938M22.004,5.7C23.492,4.515 27.388,1.27 30.091,3.539C33.547,6.438 30.188,14.435 27.645,16.231C30.229,17.276 34.745,17.323 37.518,16.421C36.401,12.085 37.596,6.035 40.432,3.819C41.731,2.806 43.909,2.39 45.605,3.255C47.368,4.157 48.226,6.121 48.238,8.333C48.257,12.236 46.513,14.982 44.853,17.171C48.583,17.557 52.158,17.109 54.819,15.574C55.51,15.175 55.884,14.363 56.605,14.162C58.661,13.594 60.451,15.665 59.803,17.641C59.468,18.662 57.768,19.55 56.51,20.086C52.39,21.851 44.31,23.538 40.432,20.368C37.705,21.783 33.975,22.037 30.372,21.684C26.792,21.335 24.069,19.967 21.346,19.052C20.91,20.707 21.645,22.736 21.157,24.223C20.654,25.76 18.391,26.262 17.208,25.164C16.179,24.208 16.536,22.751 16.08,21.308C14.932,22.405 13.235,23.343 10.813,23.096C8.775,22.887 7.076,21.588 6.206,20.368C4.449,22.404 0.53,23.856 -3.197,22.72C-4.753,23.987 -5.877,25.763 -8.743,25.727C-12.803,25.678 -14.389,22.04 -14.198,17.453C-14.753,18.521 -15.576,19.912 -16.454,21.402C-17.361,22.942 -17.981,25.036 -19.933,25.07C-21.344,25.094 -22.355,24.059 -22.378,22.72C-22.401,21.387 -20.787,19.343 -20.028,18.018C-17.47,13.564 -15.067,8.304 -13.256,3.632C-15.43,3.406 -20.46,5.309 -22.19,3.443C-23.459,2.077 -22.54,-0.281 -20.779,-0.6C-20.218,-0.701 -19.55,-0.576 -18.993,-0.6C-16.438,-0.707 -13.81,-1.36 -11.376,-1.447C-10.994,-2.349 -10.593,-3.476 -10.248,-4.736C-9.711,-6.703 -9.653,-9.186 -7.239,-9.156C-3.736,-9.115 -5.186,-4.353 -6.017,-1.915C-3.879,-1.468 -0.952,-2.807 1.504,-2.009C3.444,-1.381 3.53,1.722 1.599,2.503C0.471,2.961 -1.328,2.707 -2.726,2.785C-4.25,2.872 -5.689,2.886 -7.051,3.066C-7.688,5.344 -8.215,7.955 -8.649,10.683C-9.156,13.86 -9.985,18.137 -8.838,20.837C-7.328,20.719 -7.073,19.345 -6.3,18.488C-6.118,14.073 -4.104,10.487 -1.881,8.333C-0.85,7.334 0.823,6.411 2.728,6.36C4.1,6.32 5.092,6.932 6.395,7.205C7.719,7.481 8.797,7.415 9.215,8.803C10.116,11.783 8.355,16.137 10.25,17.829C10.741,18.269 11.334,18.422 11.943,18.302C13.55,17.975 12.965,14.53 14.293,13.88C12.704,6.658 11.919,-6.82 16.925,-10.85C18.104,-11.797 20.412,-12.476 22.19,-11.601C23.448,-10.983 24.288,-9.495 24.448,-8.028C25.004,-2.91 22.546,1.762 22.004,5.7" style="fill:rgb(35,31,32);"/>
                    </g>
                    <g transform="matrix(1,0,0,1,197.059,99.5842)">
                        <path d="M0,-8.774C-0.29,-8.686 -0.802,-8.216 -1.034,-7.927C-2.144,-6.552 -3.114,-3.497 -2.35,-1.252C0.899,-0.611 2.87,-4.49 3.855,-6.611C2.341,-7.144 1.913,-9.352 0,-8.774M5.36,0.16C3.503,1.909 1.501,3.748 -1.598,3.732C-4.564,3.715 -7.067,1.782 -7.428,-1.439C-8.017,-6.698 -4.995,-13.449 0.095,-13.663C3.241,-13.795 5.116,-12.232 6.489,-10.372C8.044,-10.529 9.044,-9.762 9.402,-8.68C10.003,-6.865 8.818,-3.198 9.967,-1.159C10.574,-0.08 12.019,0.114 13.164,-0.312C14.493,-0.804 14.707,-2.187 15.608,-2.474C17.257,-2.999 18.595,-2.087 18.808,-0.688C19.242,2.199 15.573,4.42 12.882,4.671C9.15,5.021 6.233,2.91 5.36,0.16" style="fill:rgb(35,31,32);"/>
                    </g>
                    <g transform="matrix(1,0,0,1,87.1777,99.5931)">
                        <path d="M0,22.889C0.365,19.69 1.236,17.641 1.845,14.514C2.045,13.488 2.266,12.452 2.904,11.926C4.19,10.872 6.185,11.338 6.793,13.097C7.176,14.199 6.484,15.662 6.174,16.828C5.516,19.292 5.046,21.324 4.768,24.161C4.62,25.685 4.406,27.119 3.394,27.834C3.146,28.009 2.473,28.067 1.784,28.393C0.988,28.766 0.915,29.12 0.211,29.243C-0.982,29.453 -2.411,28.26 -3.585,27.615C-6.422,26.056 -7.833,24.951 -10.694,23.396C-11.87,22.756 -13.503,22.412 -14.138,20.973C-14.858,19.337 -13.684,17.868 -12.306,17.601C-10.421,17.237 -8.731,19.468 -7.132,19.721C-8.523,13.409 -6.53,5.91 -3.265,0.493C-1.993,-1.614 -0.38,-3.873 2.233,-5.246C4.081,-6.218 6.148,-6.564 7.063,-4.941C7.571,-4.039 7.422,-2.758 6.841,-2.128C6.113,-1.341 4.205,-0.966 3.225,-0.095C0.912,1.958 -0.82,5.64 -1.742,8.724C-2.744,12.071 -3.208,15.824 -2.326,19.102C-1.931,20.56 -1.454,22.313 0,22.889" style="fill:rgb(35,31,32);"/>
                    </g>
                </g>
            </g>
        </g>
    </g>
</svg>
