<?xml version="1.0" encoding="UTF-8" standalone="no"?>
<!DOCTYPE svg PUBLIC "-//W3C//DTD SVG 1.1//EN" "http://www.w3.org/Graphics/SVG/1.1/DTD/svg11.dtd">
<svg width="100%" height="100%" viewBox="0 0 1667 1667" version="1.1" xmlns="http://www.w3.org/2000/svg" xmlns:xlink="http://www.w3.org/1999/xlink" xml:space="preserve" xmlns:serif="http://www.serif.com/" style="fill-rule:evenodd;clip-rule:evenodd;stroke-linejoin:round;stroke-miterlimit:1.41421;">
    <g id="Artboard1" transform="matrix(1.086,0,0,1.9371,-925.525,0)">
        <rect x="852.233" y="0" width="1534.68" height="860.393" style="fill:none;"/>
        <g transform="matrix(2.33403,0,0,1.30853,869.365,215.797)">
            <g transform="matrix(4.16667,0,0,4.16667,4.16667,287.564)">
                <path d="M122.972,1.749L122.326,2.245L122.311,2.256L122.3,2.241C122.123,2.011 121.929,1.808 121.716,1.633C121.503,1.458 121.273,1.311 121.025,1.192C120.777,1.073 120.517,0.984 120.245,0.924C119.972,0.865 119.687,0.835 119.389,0.835C119.065,0.835 118.753,0.874 118.453,0.952C118.153,1.03 117.863,1.148 117.586,1.304C117.309,1.46 117.064,1.643 116.85,1.852C116.636,2.061 116.454,2.297 116.302,2.56C116.149,2.823 116.035,3.102 115.959,3.398C115.883,3.694 115.844,4.006 115.844,4.335C115.844,4.832 115.929,5.288 116.099,5.702C116.27,6.117 116.524,6.49 116.865,6.821C117.205,7.154 117.589,7.403 118.018,7.569C118.447,7.736 118.922,7.819 119.441,7.819C120.011,7.819 120.534,7.707 121.01,7.484C121.487,7.261 121.917,6.927 122.301,6.481L122.312,6.467L122.326,6.478L122.972,6.968L122.987,6.979L122.975,6.994C122.77,7.255 122.539,7.487 122.283,7.689C122.028,7.89 121.747,8.062 121.441,8.204C121.135,8.346 120.81,8.453 120.468,8.524C120.126,8.595 119.766,8.631 119.389,8.631C118.671,8.631 118.028,8.511 117.46,8.272C116.893,8.032 116.401,7.673 115.986,7.194C115.638,6.791 115.377,6.344 115.202,5.857C115.028,5.369 114.941,4.839 114.941,4.268C114.941,3.066 115.363,2.053 116.206,1.232C116.629,0.821 117.104,0.513 117.633,0.308C118.162,0.103 118.743,0 119.378,0C119.761,0 120.126,0.038 120.472,0.113C120.818,0.188 121.146,0.301 121.455,0.452C121.764,0.604 122.046,0.786 122.299,0.998C122.553,1.209 122.778,1.451 122.976,1.723L122.986,1.738L122.972,1.749ZM127.347,2.188C127.816,2.188 128.246,2.273 128.635,2.443C129.025,2.612 129.373,2.866 129.682,3.205C129.963,3.513 130.173,3.851 130.314,4.216C130.454,4.582 130.524,4.976 130.524,5.398C130.524,5.822 130.45,6.22 130.302,6.59C130.154,6.961 129.931,7.305 129.634,7.622C129.338,7.939 128.999,8.177 128.617,8.336C128.236,8.495 127.812,8.574 127.347,8.574C126.411,8.574 125.644,8.257 125.052,7.622C124.755,7.305 124.532,6.961 124.384,6.59C124.236,6.22 124.161,5.822 124.161,5.398C124.161,4.978 124.232,4.586 124.372,4.22C124.513,3.856 124.724,3.519 125.004,3.211C125.313,2.87 125.662,2.614 126.052,2.444C126.443,2.274 126.875,2.188 127.347,2.188ZM127.343,2.989C127.022,2.989 126.723,3.048 126.448,3.166C126.173,3.284 125.92,3.461 125.688,3.698C125.458,3.934 125.285,4.196 125.17,4.482C125.054,4.768 124.997,5.079 124.997,5.416C124.997,5.631 125.023,5.84 125.075,6.041C125.128,6.243 125.207,6.438 125.312,6.626C125.417,6.812 125.541,6.978 125.683,7.122C125.825,7.266 125.986,7.389 126.165,7.491C126.343,7.592 126.53,7.669 126.727,7.72C126.923,7.771 127.129,7.796 127.343,7.796C127.771,7.796 128.165,7.694 128.521,7.491C128.7,7.389 128.861,7.266 129.003,7.122C129.145,6.978 129.269,6.812 129.375,6.626C129.479,6.438 129.558,6.243 129.611,6.041C129.663,5.84 129.689,5.631 129.689,5.416C129.689,5.08 129.631,4.768 129.515,4.482C129.4,4.196 129.225,3.934 128.994,3.698L128.994,3.698C128.763,3.461 128.51,3.284 128.235,3.166C127.96,3.048 127.662,2.989 127.343,2.989ZM135.008,3.025L134.507,3.542L134.493,3.555L134.48,3.542C134.274,3.343 134.069,3.193 133.868,3.093C133.666,2.993 133.468,2.944 133.272,2.944C133.024,2.944 132.811,3.026 132.634,3.189C132.546,3.27 132.48,3.359 132.436,3.454C132.391,3.549 132.369,3.651 132.369,3.759C132.369,3.95 132.442,4.134 132.587,4.307L132.587,4.308C132.66,4.397 132.774,4.495 132.929,4.601C133.084,4.707 133.281,4.821 133.518,4.943C133.806,5.092 134.049,5.239 134.246,5.384C134.445,5.53 134.598,5.674 134.704,5.815L134.704,5.815C134.807,5.957 134.884,6.109 134.936,6.269C134.987,6.429 135.013,6.598 135.013,6.776C135.013,7.027 134.969,7.259 134.881,7.471C134.793,7.684 134.66,7.877 134.484,8.052L134.483,8.052C134.307,8.226 134.108,8.356 133.887,8.443C133.666,8.531 133.424,8.574 133.16,8.574C132.984,8.574 132.812,8.555 132.644,8.517C132.475,8.478 132.311,8.421 132.151,8.344C131.991,8.268 131.844,8.177 131.712,8.071C131.58,7.966 131.461,7.845 131.356,7.71L131.346,7.698L131.356,7.686L131.846,7.13L131.86,7.114L131.874,7.13C132.071,7.352 132.274,7.519 132.484,7.63C132.692,7.741 132.907,7.796 133.127,7.796C133.281,7.796 133.423,7.771 133.553,7.722C133.684,7.673 133.804,7.599 133.913,7.501C134.02,7.403 134.101,7.296 134.155,7.18C134.208,7.066 134.235,6.942 134.235,6.81C134.235,6.592 134.164,6.398 134.023,6.227C133.951,6.143 133.834,6.047 133.671,5.941C133.508,5.834 133.3,5.716 133.047,5.588L133.047,5.588C132.772,5.446 132.541,5.306 132.354,5.167C132.167,5.027 132.024,4.888 131.925,4.75C131.825,4.612 131.75,4.463 131.7,4.306C131.65,4.148 131.625,3.98 131.625,3.803C131.625,3.571 131.665,3.36 131.745,3.167C131.824,2.975 131.943,2.801 132.102,2.648L132.102,2.647C132.261,2.495 132.442,2.38 132.643,2.303C132.844,2.227 133.065,2.188 133.308,2.188C133.59,2.188 133.873,2.256 134.156,2.391C134.439,2.526 134.723,2.729 135.007,2.999L135.021,3.012L135.008,3.025ZM136.364,2.337L137.158,2.337L137.158,3.344C137.283,3.17 137.41,3.018 137.538,2.888C137.678,2.745 137.821,2.629 137.965,2.539L137.966,2.539C138.164,2.422 138.367,2.334 138.575,2.276C138.784,2.218 138.997,2.188 139.216,2.188C139.364,2.188 139.508,2.203 139.648,2.232C139.789,2.261 139.926,2.305 140.059,2.363L140.059,2.363C140.191,2.42 140.311,2.487 140.42,2.564C140.529,2.642 140.626,2.729 140.711,2.825L140.711,2.826C140.796,2.922 140.874,3.04 140.948,3.178C141.015,3.306 141.078,3.451 141.136,3.615C141.261,3.392 141.4,3.194 141.554,3.022C141.718,2.84 141.898,2.686 142.093,2.562C142.289,2.437 142.493,2.344 142.703,2.282C142.914,2.219 143.133,2.188 143.359,2.188C143.569,2.188 143.768,2.215 143.954,2.269C144.141,2.322 144.315,2.402 144.476,2.509C144.638,2.615 144.779,2.743 144.9,2.892C145.02,3.04 145.119,3.21 145.197,3.4C145.276,3.591 145.335,3.829 145.374,4.113C145.413,4.398 145.433,4.729 145.433,5.108L145.433,8.426L145.414,8.426L144.616,8.426L144.598,8.426L144.598,8.407L144.598,5.106C144.598,4.781 144.586,4.508 144.563,4.286C144.54,4.066 144.506,3.895 144.46,3.775C144.414,3.655 144.352,3.547 144.275,3.451C144.197,3.355 144.103,3.27 143.992,3.197C143.882,3.124 143.761,3.069 143.629,3.033C143.498,2.996 143.355,2.978 143.201,2.978C143.015,2.978 142.836,3.006 142.666,3.061C142.495,3.116 142.332,3.199 142.178,3.309C142.023,3.419 141.889,3.547 141.776,3.694C141.663,3.841 141.57,4.006 141.499,4.189C141.428,4.373 141.374,4.619 141.338,4.927C141.302,5.235 141.284,5.606 141.284,6.039L141.284,8.426L141.265,8.426L140.49,8.426L140.471,8.426L140.471,8.407L140.471,5.311C140.471,4.946 140.46,4.641 140.437,4.394C140.415,4.148 140.381,3.959 140.336,3.83C140.291,3.701 140.23,3.584 140.152,3.481C140.074,3.378 139.979,3.288 139.868,3.21C139.756,3.133 139.633,3.074 139.501,3.036C139.369,2.997 139.225,2.978 139.071,2.978C138.893,2.978 138.72,3.005 138.554,3.058C138.387,3.112 138.226,3.192 138.071,3.299C137.916,3.406 137.781,3.532 137.667,3.677C137.552,3.822 137.457,3.985 137.383,4.167C137.308,4.349 137.252,4.58 137.214,4.86C137.177,5.139 137.158,5.468 137.158,5.845L137.158,8.426L137.139,8.426L136.364,8.426L136.346,8.426L136.346,8.407L136.346,2.355L136.346,2.337L136.364,2.337ZM147.91,7.158C148.007,7.158 148.097,7.175 148.18,7.209C148.263,7.243 148.338,7.294 148.407,7.363L148.408,7.363C148.476,7.432 148.527,7.508 148.561,7.592C148.595,7.675 148.612,7.767 148.612,7.866C148.612,7.963 148.595,8.053 148.561,8.137C148.527,8.22 148.476,8.296 148.408,8.365C148.338,8.434 148.263,8.487 148.18,8.521C148.097,8.557 148.007,8.574 147.91,8.574C147.814,8.574 147.724,8.557 147.641,8.522C147.558,8.487 147.482,8.435 147.412,8.365C147.344,8.296 147.293,8.22 147.259,8.137C147.225,8.053 147.207,7.963 147.207,7.866C147.207,7.767 147.225,7.675 147.259,7.592C147.293,7.508 147.344,7.432 147.412,7.363L147.413,7.363C147.482,7.294 147.558,7.243 147.641,7.209C147.724,7.175 147.814,7.158 147.91,7.158" style="fill:rgb(231,23,131);fill-rule:nonzero;"/>
            </g>
            <g transform="matrix(4.16667,0,0,4.16667,4.16667,-40.2379)">
                <path d="M152.283,43.394C152.283,54.934 143.62,59.963 135.448,59.963C134.623,59.963 133.815,59.912 133.028,59.814L121.301,42.514L134.05,27.433C134.691,27.372 135.344,27.34 136.007,27.34C145.716,27.34 152.283,33.852 152.283,43.394ZM125.493,43.71C125.493,49.816 129.754,54.425 135.762,54.425C141.629,54.425 146.031,49.874 146.031,43.595C146.031,38.871 143.167,32.879 135.902,32.879C128.637,32.879 125.493,38.409 125.493,43.71" style="fill:rgb(231,23,131);fill-rule:nonzero;"/>
            </g>
            <g transform="matrix(4.16667,0,0,4.16667,4.16667,53.5358)">
                <path d="M86.192,31.964C86.192,51.431 71.578,59.916 57.793,59.916C49.229,59.916 41.755,56.701 36.796,50.998L36.796,32.215L51.684,5.612C53.933,5.13 56.294,4.882 58.735,4.882C75.115,4.882 86.192,15.868 86.192,31.964ZM40.437,32.501C40.437,43.136 47.859,51.163 58.323,51.163C68.543,51.163 76.209,43.236 76.209,32.3C76.209,24.072 71.221,13.635 58.566,13.635C45.913,13.635 40.437,23.268 40.437,32.501" style="fill:rgb(231,23,131);fill-rule:nonzero;"/>
            </g>
            <g transform="matrix(4.16667,0,0,4.16667,4.16667,38.0825)">
                <path d="M59.522,68.149L59.522,0.358L69.664,0.358L102.343,53.919L102.529,28.392L102.532,0.358L110.851,0.358L110.851,68.149L101.069,68.149L92.741,54.412L80.216,33.751L68.593,14.774L68.714,68.149L59.522,68.149Z" style="fill:rgb(231,23,131);fill-rule:nonzero;"/>
            </g>
            <g transform="matrix(4.16667,0,0,4.16667,4.16667,-14.9908)">
                <path d="M102.551,13.187L110.851,13.175L110.851,37.527L130.501,13.187L140.522,13.187L120.872,36.432L142.247,67.966L132.503,68.07L114.987,42.079L110.6,47.079L110.6,67.966L102.551,67.966L102.551,13.187Z" style="fill:rgb(231,23,131);fill-rule:nonzero;"/>
            </g>
            <g transform="matrix(4.16667,0,0,4.16667,4.16667,3.91375)">
                <path d="M24.285,76.647L24.285,44.149L0,0.061L11.737,0.061C18.231,12.247 24.158,23.337 29.976,35.818L30.213,35.818C35.768,23.488 42.294,12.032 48.808,0.061L61.063,0.061L36.453,44.035L36.453,76.647L24.285,76.647Z" style="fill:rgb(231,23,131);fill-rule:nonzero;"/>
            </g>
        </g>
    </g>
</svg>
